<?xml version="1.0" encoding="utf-8"?>
<!-- Generator: Adobe Illustrator 16.0.0, SVG Export Plug-In . SVG Version: 6.00 Build 0)  -->
<!DOCTYPE svg PUBLIC "-//W3C//DTD SVG 1.0//EN" "http://www.w3.org/TR/2001/REC-SVG-20010904/DTD/svg10.dtd">
<svg version="1.0" id="Layer_1" xmlns="http://www.w3.org/2000/svg" xmlns:xlink="http://www.w3.org/1999/xlink" x="0px" y="0px"
	 width="32px" height="32px" viewBox="0 0 32 32" enable-background="new 0 0 32 32" xml:space="preserve">
<g>
	<path fill="#EF4D4D" d="M32.002,30.011c0,1.104-0.896,2-2,2h-28c-1.104,0-2-0.896-2-2v-28c0-1.104,0.896-2,2-2h28
		c1.104,0,2,0.896,2,2V30.011z"/>
	<path fill="#EAEAEA" d="M30.002,29.011c0,0.553-0.447,1-1,1h-26c-0.553,0-1-0.447-1-1v-26c0-0.553,0.447-1,1-1h26
		c0.553,0,1,0.447,1,1V29.011z"/>
	<path opacity="0.15" d="M29.002,30.011h-26c-0.553,0-1-0.447-1-1v1c0,0.553,0.447,1,1,1h26c0.553,0,1-0.447,1-1v-1
		C30.002,29.563,29.555,30.011,29.002,30.011z"/>
	<path fill="#FFFFFF" d="M2.002,16.011l-2,9c0,0.553,0.447,1,1,1h30c0.553,0,1-0.447,1-1l-2-9H2.002z"/>
	<path opacity="0.1" d="M31.002,26.011h-30c-0.387,0-0.712-0.226-0.879-0.547l-0.121,0.547c0,0.553,0.447,1,1,1h30
		c0.553,0,1-0.447,1-1l-0.121-0.547C31.714,25.785,31.389,26.011,31.002,26.011z"/>
	<g>
		<path fill="#3AAD73" d="M28.002,14.011c-0.553,0-1,0.447-1,1v2c0,0.553,0.447,1,1,1s1-0.447,1-1v-2
			C29.002,14.458,28.555,14.011,28.002,14.011z"/>
		<path fill="#3AAD73" d="M4.002,14.011c-0.553,0-1,0.447-1,1v2c0,0.553,0.447,1,1,1s1-0.447,1-1v-2
			C5.002,14.458,4.555,14.011,4.002,14.011z"/>
	</g>
	<g>
		<path fill="#434854" d="M14.002,19.011v-9c0-0.062-0.024-0.115-0.035-0.175c-0.01-0.056-0.005-0.111-0.025-0.167
			c-0.003-0.008-0.01-0.013-0.013-0.021c-0.029-0.074-0.077-0.136-0.122-0.201c-0.03-0.042-0.051-0.091-0.087-0.128
			c-0.046-0.048-0.105-0.079-0.161-0.117c-0.051-0.035-0.095-0.077-0.15-0.102C13.357,9.078,13.3,9.073,13.245,9.06
			c-0.072-0.019-0.143-0.042-0.218-0.044c-0.009,0-0.017-0.005-0.025-0.005c-0.062,0-0.116,0.024-0.176,0.035
			c-0.056,0.01-0.111,0.006-0.166,0.025l-2.942,1.077c-0.52,0.188-0.732,0.877-0.543,1.396c0.188,0.52,0.882,0.581,1.401,0.393
			l1.426-0.497v7.571c-0.553,0-1,0.447-1,1s0.447,1,1,1h2c0.553,0,1-0.447,1-1S14.555,19.011,14.002,19.011z"/>
		<path fill="#434854" d="M24.002,10.011c0-0.553-0.447-1-1-1h-5c-0.553,0-1,0.447-1,1s0.447,1,1,1h3.463l-4.354,8.546
			c-0.252,0.493-0.056,1.095,0.437,1.346c0.492,0.25,1.094,0.055,1.345-0.438l4.994-9.801c0.086-0.169,0.103-0.349,0.09-0.525
			C23.982,10.095,24.002,10.056,24.002,10.011z"/>
	</g>
	<g opacity="0.2">
		<path d="M28.002,18.011c-0.553,0-1-0.447-1-1v1c0,0.553,0.447,1,1,1s1-0.447,1-1v-1C29.002,17.563,28.555,18.011,28.002,18.011z"
			/>
		<path d="M4.002,18.011c-0.553,0-1-0.447-1-1v1c0,0.553,0.447,1,1,1s1-0.447,1-1v-1C5.002,17.563,4.555,18.011,4.002,18.011z"/>
	</g>
</g>
</svg>
