<?xml version="1.0" encoding="utf-8"?>
<!-- Generator: Adobe Illustrator 16.0.0, SVG Export Plug-In . SVG Version: 6.00 Build 0)  -->
<!DOCTYPE svg PUBLIC "-//W3C//DTD SVG 1.0//EN" "http://www.w3.org/TR/2001/REC-SVG-20010904/DTD/svg10.dtd">
<svg version="1.0" id="Layer_1" xmlns="http://www.w3.org/2000/svg" xmlns:xlink="http://www.w3.org/1999/xlink" x="0px" y="0px"
	 width="32px" height="32px" viewBox="0 0 32 32" enable-background="new 0 0 32 32" xml:space="preserve">
<g>
	<path fill="#EACA44" d="M24-0.039H8c-0.553,0-1,0.447-1,1v13c0,4,7,4.056,7,8.056v2.944c0,1.657-1.343,3-3,3h3h4h3
		c-1.657,0-3-1.343-3-3v-3c0-3.944,7-4,7-8v-13C25,0.408,24.553-0.039,24-0.039z"/>
	<rect x="9" y="27.961" fill="#434854" width="14" height="4"/>
	<rect x="12" y="28.961" fill="#DAE2E5" width="8" height="2"/>
	<path fill="#EACA44" d="M7,3.961v-2H4c-1.104,0-2,0.896-2,2v5c0,2.762,2.238,5,5,5v-2c-1.657,0-3-1.343-3-3v-5H7z"/>
	<path fill="#EACA44" d="M25,3.961v-2h3c1.104,0,2,0.896,2,2v5c0,2.762-2.238,5-5,5v-2c1.657,0,3-1.343,3-3v-5H25z"/>
	<g opacity="0.1">
		<rect x="25" y="1.961" width="1" height="2"/>
		<path d="M25,13.961c0.343,0,0.677-0.035,1-0.101v-2.083c-0.314,0.111-0.647,0.184-1,0.184V13.961z"/>
		<path d="M6,13.86c0.323,0.065,0.657,0.101,1,0.101v-2c-0.353,0-0.686-0.072-1-0.184V13.86z"/>
		<rect x="6" y="1.961" width="1" height="2"/>
	</g>
	<path opacity="0.1" d="M18.778,26.961h-5.557c-0.549,0.609-1.336,1-2.222,1h3h4h3C20.114,27.961,19.327,27.57,18.778,26.961z"/>
</g>
</svg>
