<?xml version="1.0" encoding="utf-8"?>
<!-- Generator: Adobe Illustrator 16.0.0, SVG Export Plug-In . SVG Version: 6.00 Build 0)  -->
<!DOCTYPE svg PUBLIC "-//W3C//DTD SVG 1.0//EN" "http://www.w3.org/TR/2001/REC-SVG-20010904/DTD/svg10.dtd">
<svg version="1.0" id="Layer_1" xmlns="http://www.w3.org/2000/svg" xmlns:xlink="http://www.w3.org/1999/xlink" x="0px" y="0px"
	 width="32px" height="32px" viewBox="0 0 32 32" enable-background="new 0 0 32 32" xml:space="preserve">
<g>
	<path fill="#469FCC" d="M30.998,13.002l-3.568-0.649c-0.205-0.643-0.468-1.258-0.772-1.849l2.068-2.987
		c0.442-0.685,0.391-1.023,0-1.414l-2.827-2.83c-0.392-0.39-0.775-0.419-1.414,0.001l-2.988,2.069
		c-0.591-0.306-1.207-0.567-1.85-0.772l-0.648-3.568c-0.172-0.797-0.447-1-1-1l-4-0.002c-0.553,0.001-0.844,0.252-1,1l-0.649,3.57
		c-0.642,0.205-1.258,0.467-1.848,0.772L7.513,3.273c-0.685-0.441-1.023-0.391-1.414,0L3.27,6.102c-0.391,0.391-0.419,0.773,0,1.414
		l2.069,2.989c-0.305,0.59-0.566,1.205-0.771,1.847l-3.569,0.649c-0.797,0.172-1,0.447-1,1v4c0,0.553,0.25,0.844,1,1l3.569,0.649
		c0.205,0.642,0.467,1.258,0.772,1.849l-2.068,2.987c-0.443,0.684-0.391,1.023,0,1.414l2.824,2.83
		c0.392,0.389,0.776,0.417,1.416-0.002l2.987-2.069c0.591,0.306,1.207,0.567,1.851,0.772L12.998,31c0.171,0.797,0.447,1,1,1
		l3.999,0.003c0.552-0.001,0.844-0.253,1-1.001l0.648-3.569c0.643-0.205,1.259-0.467,1.849-0.772l2.988,2.068
		c0.685,0.442,1.022,0.391,1.414,0l2.83-2.826c0.39-0.392,0.418-0.775-0.001-1.415l-2.069-2.988c0.306-0.59,0.567-1.206,0.772-1.848
		l3.568-0.649c0.797-0.172,0.999-0.447,1-1l0.003-4C31.998,13.449,31.747,13.157,30.998,13.002z M15.998,22.001
		c-3.313,0-6-2.687-6-6s2.687-6,6-6s6,2.687,6,6S19.312,22.001,15.998,22.001z"/>
	<path opacity="0.15" d="M15.998,10.002c3.313,0,6,2.687,6,6h2c0-4.418-3.582-8-8-8s-8,3.582-8,8h2
		C9.998,12.688,12.685,10.002,15.998,10.002z"/>
	<path opacity="0.2" fill="#FFFFFF" d="M15.998,22.002c-3.313,0-6-2.687-6-6h-2c0,4.418,3.582,8,8,8s8-3.582,8-8h-2
		C21.998,19.315,19.312,22.002,15.998,22.002z"/>
</g>
</svg>
