<?xml version="1.0" encoding="utf-8"?>
<!-- Generator: Adobe Illustrator 16.0.0, SVG Export Plug-In . SVG Version: 6.00 Build 0)  -->
<!DOCTYPE svg PUBLIC "-//W3C//DTD SVG 1.0//EN" "http://www.w3.org/TR/2001/REC-SVG-20010904/DTD/svg10.dtd">
<svg version="1.0" id="Layer_1" xmlns="http://www.w3.org/2000/svg" xmlns:xlink="http://www.w3.org/1999/xlink" x="0px" y="0px"
	 width="32px" height="32px" viewBox="0 0 32 32" enable-background="new 0 0 32 32" xml:space="preserve">
<g>
	<path fill="#E9EDEE" d="M32,26c0,1.104-0.896,2-2,2H2c-1.104,0-2-0.896-2-2V6c0-1.104,0.896-2,2-2h28c1.104,0,2,0.896,2,2V26z"/>
	<g>
		<path opacity="0.2" d="M18.383,17.411l12.88,10.128C31.709,27.077,32,26.387,32,25.603l-13.383-8.419L18.383,17.411z"/>
	</g>
	<g>
		<path opacity="0.2" d="M13.383,17.184L0,25.603c0,0.784,0.291,1.475,0.737,1.937l12.88-10.128L13.383,17.184z"/>
	</g>
	<path opacity="0.2" d="M16.707,16.59c-0.391,0.325-1.023,0.325-1.414,0L0,6v0.035l15.293,12.721c0.391,0.325,1.023,0.325,1.414,0
		L32,6.035V6L16.707,16.59z"/>
</g>
</svg>
