<?xml version="1.0" encoding="UTF-8" standalone="no"?>
<svg
   xmlns:dc="http://purl.org/dc/elements/1.1/"
   xmlns:cc="http://creativecommons.org/ns#"
   xmlns:rdf="http://www.w3.org/1999/02/22-rdf-syntax-ns#"
   xmlns:svg="http://www.w3.org/2000/svg"
   xmlns="http://www.w3.org/2000/svg"
   xmlns:sodipodi="http://sodipodi.sourceforge.net/DTD/sodipodi-0.dtd"
   xmlns:inkscape="http://www.inkscape.org/namespaces/inkscape"
   viewBox="0 0 693.33331 693.33331"
   height="693.33331"
   width="693.33331"
   xml:space="preserve"
   id="svg2"
   version="1.1"
   sodipodi:docname="export.ai.svg"
   inkscape:version="0.92.1 unknown"><sodipodi:namedview
     pagecolor="#ffffff"
     bordercolor="#666666"
     borderopacity="1"
     objecttolerance="10"
     gridtolerance="10"
     guidetolerance="10"
     inkscape:pageopacity="0"
     inkscape:pageshadow="2"
     inkscape:window-width="1600"
     inkscape:window-height="821"
     id="namedview5414"
     showgrid="false"
     inkscape:zoom="0.96275311"
     inkscape:cx="347.47262"
     inkscape:cy="346.66666"
     inkscape:window-x="0"
     inkscape:window-y="24"
     inkscape:window-maximized="1"
     inkscape:current-layer="svg2" /><metadata
     id="metadata8"><rdf:RDF><cc:Work
         rdf:about=""><dc:format>image/svg+xml</dc:format><dc:type
           rdf:resource="http://purl.org/dc/dcmitype/StillImage" /><dc:title /></cc:Work></rdf:RDF></metadata><defs
     id="defs6"><clipPath
       id="clipPath18"
       clipPathUnits="userSpaceOnUse"><path
         id="path16"
         d="M 0,0 H 520 V 520 H 0 Z" /></clipPath><radialGradient
       id="radialGradient28"
       spreadMethod="pad"
       gradientTransform="matrix(260,0,0,-260,260,260)"
       gradientUnits="userSpaceOnUse"
       r="1"
       cy="0"
       cx="0"
       fy="0"
       fx="0"><stop
         id="stop24"
         offset="0"
         style="stop-opacity:1;stop-color:#ffffff" /><stop
         id="stop26"
         offset="1"
         style="stop-opacity:1;stop-color:#e7e8e9" /></radialGradient><clipPath
       id="clipPath38"
       clipPathUnits="userSpaceOnUse"><path
         id="path36"
         d="M 0,520 H 520 V 0 H 0 Z" /></clipPath></defs><path
     id="path42"
     style="fill:#414142;fill-opacity:1;fill-rule:nonzero;stroke:none;stroke-width:1.33333325"
     d="m 422.66666,303.24027 h -1.77733 c -2.94534,0 -5.33334,2.388 -5.33334,5.33333 0,2.94534 2.388,5.33334 5.33334,5.33334 h 1.77733 c 2.94533,0 5.33333,-2.388 5.33333,-5.33334 0,-2.94533 -2.388,-5.33333 -5.33333,-5.33333"
     inkscape:connector-curvature="0" /><path
     id="path46"
     style="fill:#414142;fill-opacity:1;fill-rule:nonzero;stroke:none;stroke-width:1.33333325"
     d="m 451.31386,177.66468 h -17.92 c -16.8,-34.56267 -51.236,-57.556 -86.72666,-57.556 -27.82667,0 -54.28134,12.04 -72.57867,33.03333 -1.936,2.22 -1.70533,5.58934 0.516,7.524 2.22,1.936 5.58933,1.70534 7.524,-0.51466 16.272,-18.668 39.796,-29.376 64.53867,-29.376 32.42266,0 63.95333,21.86 78.46133,54.39466 0.88533,1.984 2.83333,3.16267 4.87466,3.16267 0.11067,0 0.22134,-0.028 0.332,-0.0347 0.112,0.007 0.21867,0.0333 0.332,0.0333 h 20.64667 c 31.68133,0 57.45467,25.77466 57.45467,57.45466 0,31.68133 -25.77334,57.45467 -57.45467,57.45467 h -12.75733 c -2.94534,0 -5.33334,2.388 -5.33334,5.33333 0,2.94533 2.388,5.33333 5.33334,5.33333 h 12.75733 c 37.56267,0 68.12133,-30.55866 68.12133,-68.12133 0,-37.56266 -30.55866,-68.12133 -68.12133,-68.12133"
     inkscape:connector-curvature="0" /><path
     id="path50"
     style="fill:#414142;fill-opacity:1;fill-rule:nonzero;stroke:none;stroke-width:1.33333325"
     d="m 416.51826,209.78974 c 0.172,0.0227 0.34267,0.052 0.52133,0.052 h 18.51467 c 19.888,0 38.38267,11.64133 47.116,29.65733 0.69066,1.42667 2.11733,2.25734 3.60133,2.25734 0.58667,0 1.18,-0.12934 1.74267,-0.40267 1.988,-0.964 2.81733,-3.356 1.85466,-5.344 -10.06133,-20.756 -31.37999,-34.168 -54.31466,-34.168 h -17.024 c -9.77733,-20.38667 -26.564,-36.82533 -46.43867,-45.312 -2.028,-0.86667 -4.38133,0.0747 -5.24933,2.108 -0.86667,2.032 0.076,4.38133 2.108,5.24933 18.80933,8.032 34.62667,23.91734 43.396,43.584 0.664,1.488 2.12533,2.372 3.656,2.372 0.17067,0 0.344,-0.0307 0.516,-0.0533"
     inkscape:connector-curvature="0" /><path
     id="path54"
     style="fill:#414142;fill-opacity:1;fill-rule:nonzero;stroke:none;stroke-width:1.33333325"
     d="m 485.85279,247.81321 c 1.148,4.00267 1.81067,8.148 1.972,12.32133 0.0827,2.15467 1.856,3.84667 3.99467,3.84667 0.052,0 0.104,-10e-4 0.156,-0.003 2.20666,-0.084 3.928,-1.94266 3.844,-4.15066 -0.18534,-4.816 -0.95067,-9.59867 -2.276,-14.22 -0.60934,-2.124 -2.82267,-3.35334 -4.948,-2.74267 -2.124,0.60933 -3.352,2.824 -2.74267,4.948"
     inkscape:connector-curvature="0" /><path
     id="path58"
     style="fill:#414142;fill-opacity:1;fill-rule:nonzero;stroke:none;stroke-width:1.33333325"
     d="m 405.66666,303.24027 h -30.33333 v -24.57333 c 0,-2.94534 -2.388,-5.33334 -5.33334,-5.33334 h -46.66666 c -2.94533,0 -5.33333,2.388 -5.33333,5.33334 v 24.57333 h -75.98 c -31.68134,0 -57.45467,-25.77333 -57.45467,-57.45467 0,-31.67999 25.77333,-57.45466 57.45467,-57.45466 h 19.75733 c 1.972,0 3.67333,-1.08133 4.596,-2.67067 0.412,-0.452 0.76,-0.972 1.004,-1.57066 1.77067,-4.34667 3.92,-8.57867 6.38533,-12.58 1.54667,-2.50667 0.76667,-5.79334 -1.74,-7.33867 -2.508,-1.54667 -5.79333,-0.764 -7.33866,1.74133 -2.31867,3.76 -4.368,7.70667 -6.148,11.752 H 242.02 c -37.56267,0 -68.12133,30.56 -68.12133,68.12133 0,37.56267 30.55866,68.12134 68.12133,68.12134 H 318 v 32.42666 h -20.66667 c -2.076,0 -3.964,1.20534 -4.83733,3.088 -0.87467,1.884 -0.576,4.10267 0.76533,5.68934 l 29.348,34.70133 c 1.05467,1.248 2.55867,1.88933 4.07467,1.88933 1.216,0 2.44,-0.41333 3.44133,-1.26 2.24933,-1.90267 2.53067,-5.268 0.628,-7.51733 l -21.924,-25.924 h 14.504 c 2.94533,0 5.33333,-2.388 5.33333,-5.33333 v -67.66667 h 36 v 67.66667 c 0,2.94533 2.388,5.33333 5.33333,5.33333 h 14.50534 l -37.83867,44.74 -4.172,-4.93334 c -1.90133,-2.248 -5.26666,-2.52933 -7.516,-0.628 -2.24933,1.90134 -2.53066,5.268 -0.628,7.516 l 8.244,9.74934 c 1.01333,1.19733 2.50267,1.88933 4.072,1.88933 1.56933,0 3.05867,-0.692 4.07333,-1.88933 l 49.33334,-58.33333 c 1.34,-1.58667 1.63866,-3.80534 0.76533,-5.68934 -0.87467,-1.88266 -2.76133,-3.088 -4.83867,-3.088 h -20.66666 v -32.42666 h 30.33333 c 2.94533,0 5.33333,-2.388 5.33333,-5.33334 0,-2.94533 -2.388,-5.33333 -5.33333,-5.33333"
     inkscape:connector-curvature="0" /><path
     id="path62"
     style="fill:#00dc00;fill-opacity:1;fill-rule:nonzero;stroke:none;stroke-width:1.33333325"
     d="m 122.59373,578.72 h -0.53067 c -0.88,0 -1.59333,0.71333 -1.59333,1.59333 0,0.88 0.71333,1.59467 1.59333,1.59467 h 0.53067 c 0.88,0 1.59333,-0.71467 1.59333,-1.59467 0,-0.88 -0.71333,-1.59333 -1.59333,-1.59333"
     inkscape:connector-curvature="0" /><path
     id="path66"
     style="fill:#00dc00;fill-opacity:1;fill-rule:nonzero;stroke:none;stroke-width:1.33333325"
     d="m 131.15426,541.19533 h -5.35467 c -5.02,-10.32667 -15.31066,-17.19733 -25.915996,-17.19733 -8.314666,0 -16.219999,3.59733 -21.686666,9.87066 -0.578667,0.66267 -0.510667,1.66934 0.153333,2.24667 0.664,0.58 1.670667,0.51067 2.248,-0.15333 4.862667,-5.57734 11.892,-8.77734 19.285333,-8.77734 9.687996,0 19.110666,6.532 23.445336,16.25467 0.26533,0.592 0.848,0.94533 1.45733,0.94533 0.0333,0 0.0653,-0.009 0.0987,-0.0107 0.0333,10e-4 0.0653,0.009 0.1,0.009 h 6.16933 c 9.46667,0 17.168,7.70133 17.168,17.16933 0,9.46534 -7.70133,17.168 -17.168,17.168 h -3.812 c -0.88133,0 -1.59467,0.71334 -1.59467,1.59334 0,0.88 0.71334,1.59333 1.59467,1.59333 h 3.812 c 11.224,0 20.356,-9.13067 20.356,-20.35467 0,-11.22533 -9.132,-20.35733 -20.356,-20.35733"
     inkscape:connector-curvature="0" /><path
     id="path70"
     style="fill:#00dc00;fill-opacity:1;fill-rule:nonzero;stroke:none;stroke-width:1.33333325"
     d="m 120.75653,550.7956 c 0.052,0.007 0.10267,0.016 0.156,0.016 h 5.53333 c 5.94267,0 11.46934,3.47733 14.07867,8.86133 0.20533,0.42667 0.632,0.67467 1.076,0.67467 0.17467,0 0.352,-0.0387 0.52,-0.12133 0.59467,-0.288 0.84267,-1.00267 0.55467,-1.596 -3.00667,-6.20134 -9.37734,-10.20934 -16.22934,-10.20934 h -5.088 c -2.92133,-6.09333 -7.93733,-11.004 -13.87733,-13.54133 -0.60533,-0.25867 -1.308,0.0227 -1.568,0.63067 -0.25867,0.60666 0.0227,1.30933 0.63067,1.56933 5.62,2.4 10.34666,7.14533 12.96666,13.02267 0.19867,0.444 0.636,0.70933 1.09334,0.70933 0.0507,0 0.10133,-0.009 0.15333,-0.016"
     inkscape:connector-curvature="0" /><path
     id="path74"
     style="fill:#00dc00;fill-opacity:1;fill-rule:nonzero;stroke:none;stroke-width:1.33333325"
     d="m 141.4752,562.1576 c 0.34267,1.19467 0.54133,2.43467 0.58933,3.68267 0.024,0.64266 0.55467,1.148 1.19334,1.148 h 0.0467 c 0.66,-0.0253 1.17334,-0.58 1.148,-1.24134 -0.0547,-1.43866 -0.28266,-2.868 -0.68,-4.248 -0.18133,-0.636 -0.84266,-1.00266 -1.47866,-0.82 -0.63334,0.18134 -1.00134,0.844 -0.81867,1.47867"
     inkscape:connector-curvature="0" /><path
     id="path78"
     style="fill:#00dc00;fill-opacity:1;fill-rule:nonzero;stroke:none;stroke-width:1.33333325"
     d="m 117.51426,578.72 h -9.064 v -7.344 c 0,-0.87867 -0.71333,-1.59333 -1.59467,-1.59333 H 92.911594 c -0.88,0 -1.593333,0.71466 -1.593333,1.59333 v 7.344 h -22.704 c -9.466666,0 -17.169333,-7.70133 -17.169333,-17.168 0,-9.468 7.702667,-17.16933 17.169333,-17.16933 h 5.902667 c 0.589333,0 1.098666,-0.32267 1.374666,-0.79867 0.122667,-0.13333 0.226667,-0.28933 0.298667,-0.468 0.529333,-1.29867 1.172,-2.564 1.909333,-3.75867 0.461334,-0.74933 0.228,-1.732 -0.521333,-2.19333 -0.749333,-0.46267 -1.730667,-0.22933 -2.192,0.52 -0.693333,1.12267 -1.305333,2.30267 -1.837333,3.51067 h -4.934667 c -11.223999,0 -20.355999,9.132 -20.355999,20.35733 0,11.224 9.132,20.356 20.355999,20.356 h 22.704 v 9.688 h -6.176 c -0.62,0 -1.184,0.36133 -1.445333,0.924 -0.261334,0.56133 -0.172,1.22667 0.229333,1.7 l 8.769333,10.368 c 0.314667,0.37467 0.764,0.56533 1.217333,0.56533 0.364,0 0.729334,-0.124 1.028,-0.376 0.672,-0.56933 0.756,-1.57466 0.188,-2.24666 l -6.552,-7.74667 h 4.334667 c 0.88,0 1.593333,-0.71333 1.593333,-1.59333 v -20.22 h 10.758663 v 20.22 c 0,0.88 0.71334,1.59333 1.592,1.59333 h 4.33467 L 99.883594,608.15333 98.636927,606.68 c -0.568,-0.672 -1.573333,-0.75733 -2.245333,-0.18933 -0.672,0.56933 -0.756,1.57466 -0.188,2.24666 l 2.464,2.91334 c 0.302666,0.35866 0.746666,0.564 1.216,0.564 0.469336,0 0.914666,-0.20534 1.217336,-0.564 L 115.84226,594.22 c 0.4,-0.47333 0.49067,-1.13867 0.22933,-1.7 -0.26133,-0.56267 -0.82533,-0.924 -1.44666,-0.924 h -6.17467 v -9.688 h 9.064 c 0.88,0 1.59333,-0.71467 1.59333,-1.59467 0,-0.88 -0.71333,-1.59333 -1.59333,-1.59333"
     inkscape:connector-curvature="0" /><path
     id="path82"
     style="fill:#d10000;fill-opacity:1;fill-rule:nonzero;stroke:none;stroke-width:1.33333325"
     d="m 291.48573,578.72 h -0.53067 c -0.88133,0 -1.59466,0.71333 -1.59466,1.59333 0,0.88 0.71333,1.59467 1.59466,1.59467 h 0.53067 c 0.88,0 1.59333,-0.71467 1.59333,-1.59467 0,-0.88 -0.71333,-1.59333 -1.59333,-1.59333"
     inkscape:connector-curvature="0" /><path
     id="path86"
     style="fill:#d10000;fill-opacity:1;fill-rule:nonzero;stroke:none;stroke-width:1.33333325"
     d="m 300.04559,541.19533 h -5.35467 c -5.02,-10.32667 -15.31066,-17.19733 -25.916,-17.19733 -8.31466,0 -16.22,3.59733 -21.68666,9.87066 -0.57867,0.66267 -0.50934,1.66934 0.15333,2.24667 0.664,0.58 1.67067,0.51067 2.248,-0.15333 4.86267,-5.57734 11.892,-8.77734 19.28533,-8.77734 9.688,0 19.11067,6.532 23.44667,16.25467 0.264,0.592 0.84667,0.94533 1.456,0.94533 0.0333,0 0.0667,-0.009 0.0987,-0.0107 0.0347,10e-4 0.0653,0.009 0.1,0.009 h 6.16933 c 9.46667,0 17.168,7.70133 17.168,17.16933 0,9.46534 -7.70133,17.168 -17.168,17.168 h -3.812 c -0.88,0 -1.59333,0.71334 -1.59333,1.59334 0,0.88 0.71333,1.59333 1.59333,1.59333 h 3.812 c 11.224,0 20.356,-9.13067 20.356,-20.35467 0,-11.22533 -9.132,-20.35733 -20.356,-20.35733"
     inkscape:connector-curvature="0" /><path
     id="path90"
     style="fill:#d10000;fill-opacity:1;fill-rule:nonzero;stroke:none;stroke-width:1.33333325"
     d="m 289.64839,550.7956 c 0.052,0.007 0.10267,0.016 0.156,0.016 h 5.532 c 5.94267,0 11.46933,3.47733 14.07867,8.86133 0.20666,0.42667 0.63333,0.67467 1.076,0.67467 0.176,0 0.35333,-0.0387 0.52133,-0.12133 0.59467,-0.288 0.84133,-1.00267 0.55333,-1.596 -3.00533,-6.20134 -9.376,-10.20934 -16.22933,-10.20934 h -5.08667 c -2.92133,-6.09333 -7.93733,-11.004 -13.87733,-13.54133 -0.60533,-0.25867 -1.30933,0.0227 -1.568,0.63067 -0.26,0.60666 0.0227,1.30933 0.62933,1.56933 5.62134,2.4 10.348,7.14533 12.968,13.02267 0.19867,0.444 0.63467,0.70933 1.092,0.70933 0.052,0 0.10267,-0.009 0.15467,-0.016"
     inkscape:connector-curvature="0" /><path
     id="path94"
     style="fill:#d10000;fill-opacity:1;fill-rule:nonzero;stroke:none;stroke-width:1.33333325"
     d="m 310.36653,562.1576 c 0.34267,1.19467 0.54133,2.43467 0.58933,3.68267 0.024,0.64266 0.55467,1.148 1.19334,1.148 h 0.0467 c 0.66,-0.0253 1.17334,-0.58 1.148,-1.24134 -0.0547,-1.43866 -0.28266,-2.868 -0.67866,-4.248 -0.18267,-0.636 -0.844,-1.00266 -1.48,-0.82 -0.63334,0.18134 -1.00134,0.844 -0.81867,1.47867"
     inkscape:connector-curvature="0" /><path
     id="path98"
     style="fill:#d10000;fill-opacity:1;fill-rule:nonzero;stroke:none;stroke-width:1.33333325"
     d="m 286.40559,578.72 h -9.064 v -7.344 c 0,-0.87867 -0.71333,-1.59333 -1.59333,-1.59333 h -13.94534 c -0.88,0 -1.59333,0.71466 -1.59333,1.59333 v 7.344 h -22.704 c -9.46667,0 -17.168,-7.70133 -17.168,-17.168 0,-9.468 7.70133,-17.16933 17.168,-17.16933 h 5.904 c 0.588,0 1.09733,-0.32267 1.37333,-0.79867 0.12267,-0.13333 0.22667,-0.28933 0.3,-0.468 0.528,-1.29867 1.17067,-2.564 1.908,-3.75867 0.46134,-0.74933 0.22934,-1.732 -0.52,-2.19333 -0.74933,-0.46267 -1.732,-0.22933 -2.19333,0.52 -0.69333,1.12267 -1.30533,2.30267 -1.83733,3.51067 h -4.93467 c -11.224,0 -20.356,9.132 -20.356,20.35733 0,11.224 9.132,20.356 20.356,20.356 h 22.704 v 9.688 h -6.176 c -0.62,0 -1.184,0.36133 -1.44533,0.924 -0.26134,0.56133 -0.172,1.22667 0.22933,1.7 l 8.76933,10.368 c 0.31467,0.37467 0.764,0.56533 1.21734,0.56533 0.364,0 0.72933,-0.124 1.028,-0.376 0.672,-0.56933 0.756,-1.57466 0.188,-2.24666 l -6.552,-7.74667 h 4.33466 c 0.88,0 1.59334,-0.71333 1.59334,-1.59333 v -20.22 h 10.75866 v 20.22 c 0,0.88 0.71334,1.59333 1.59334,1.59333 h 4.33333 l -11.30667,13.36933 -1.24666,-1.47333 c -0.568,-0.672 -1.57334,-0.75733 -2.24534,-0.18933 -0.672,0.56933 -0.756,1.57466 -0.188,2.24666 l 2.464,2.91334 c 0.30267,0.35866 0.748,0.564 1.216,0.564 0.46934,0 0.91467,-0.20534 1.21734,-0.564 L 284.73492,594.22 c 0.4,-0.47333 0.48934,-1.13867 0.228,-1.7 -0.26133,-0.56267 -0.82533,-0.924 -1.44666,-0.924 h -6.17467 v -9.688 h 9.064 c 0.88,0 1.59333,-0.71467 1.59333,-1.59467 0,-0.88 -0.71333,-1.59333 -1.59333,-1.59333"
     inkscape:connector-curvature="0" /><path
     id="path102"
     style="fill:#009eff;fill-opacity:1;fill-rule:nonzero;stroke:none;stroke-width:1.33333325"
     d="m 460.37626,578.72 h -0.52933 c -0.88134,0 -1.59467,0.71333 -1.59467,1.59333 0,0.88 0.71333,1.59467 1.59467,1.59467 h 0.52933 c 0.88,0 1.59333,-0.71467 1.59333,-1.59467 0,-0.88 -0.71333,-1.59333 -1.59333,-1.59333"
     inkscape:connector-curvature="0" /><path
     id="path106"
     style="fill:#009eff;fill-opacity:1;fill-rule:nonzero;stroke:none;stroke-width:1.33333325"
     d="m 468.93745,541.19533 h -5.356 C 458.56278,530.86866 448.27212,523.998 437.66678,523.998 c -8.31466,0 -16.22,3.59733 -21.688,9.87066 -0.57733,0.66267 -0.50933,1.66934 0.15334,2.24667 0.66533,0.58 1.67066,0.51067 2.24933,-0.15333 4.86267,-5.57734 11.892,-8.77734 19.28533,-8.77734 9.688,0 19.11067,6.532 23.44534,16.25467 0.26533,0.592 0.848,0.94533 1.45733,0.94533 0.032,0 0.0653,-0.009 0.0987,-0.0107 0.0333,10e-4 0.0653,0.009 0.0987,0.009 h 6.17067 c 9.46667,0 17.168,7.70133 17.168,17.16933 0,9.46534 -7.70133,17.168 -17.168,17.168 h -3.812 c -0.88133,0 -1.59467,0.71334 -1.59467,1.59334 0,0.88 0.71334,1.59333 1.59467,1.59333 h 3.812 c 11.224,0 20.356,-9.13067 20.356,-20.35467 0,-11.22533 -9.132,-20.35733 -20.356,-20.35733"
     inkscape:connector-curvature="0" /><path
     id="path110"
     style="fill:#009eff;fill-opacity:1;fill-rule:nonzero;stroke:none;stroke-width:1.33333325"
     d="m 458.53906,550.7956 c 0.052,0.007 0.10267,0.016 0.156,0.016 h 5.53333 c 5.94267,0 11.46934,3.47733 14.07867,8.86133 0.20533,0.42667 0.63333,0.67467 1.076,0.67467 0.176,0 0.352,-0.0387 0.52,-0.12133 0.59467,-0.288 0.84267,-1.00267 0.55467,-1.596 -3.00534,-6.20134 -9.37734,-10.20934 -16.22934,-10.20934 h -5.088 c -2.92133,-6.09333 -7.93733,-11.004 -13.876,-13.54133 -0.60533,-0.25867 -1.30933,0.0227 -1.56933,0.63067 -0.25867,0.60666 0.024,1.30933 0.63067,1.56933 5.62,2.4 10.34666,7.14533 12.96666,13.02267 0.19867,0.444 0.636,0.70933 1.09334,0.70933 0.0507,0 0.10266,-0.009 0.15333,-0.016"
     inkscape:connector-curvature="0" /><path
     id="path114"
     style="fill:#009eff;fill-opacity:1;fill-rule:nonzero;stroke:none;stroke-width:1.33333325"
     d="m 479.25785,562.1576 c 0.344,1.19467 0.54133,2.43467 0.588,3.68267 0.0267,0.64266 0.556,1.148 1.19467,1.148 h 0.0467 c 0.66,-0.0253 1.17467,-0.58 1.148,-1.24134 -0.0547,-1.43866 -0.28266,-2.868 -0.67866,-4.248 -0.18267,-0.636 -0.844,-1.00266 -1.48,-0.82 -0.63334,0.18134 -1.00134,0.844 -0.81867,1.47867"
     inkscape:connector-curvature="0" /><path
     id="path118"
     style="fill:#009eff;fill-opacity:1;fill-rule:nonzero;stroke:none;stroke-width:1.33333325"
     d="m 455.29692,578.72 h -9.064 v -7.344 c 0,-0.87867 -0.71333,-1.59333 -1.59333,-1.59333 h -13.94534 c -0.88,0 -1.59333,0.71466 -1.59333,1.59333 v 7.344 h -22.704 c -9.46667,0 -17.16933,-7.70133 -17.16933,-17.168 0,-9.468 7.70266,-17.16933 17.16933,-17.16933 h 5.904 c 0.588,0 1.09733,-0.32267 1.37333,-0.79867 0.12267,-0.13333 0.22667,-0.28933 0.3,-0.468 0.528,-1.29867 1.172,-2.564 1.90667,-3.75867 0.46267,-0.74933 0.22933,-1.732 -0.51867,-2.19333 -0.75066,-0.46267 -1.73066,-0.22933 -2.19333,0.52 -0.692,1.12267 -1.30533,2.30267 -1.83733,3.51067 h -4.93467 c -11.22533,0 -20.356,9.132 -20.356,20.35733 0,11.224 9.13067,20.356 20.356,20.356 h 22.704 v 9.688 h -6.17467 c -0.62133,0 -1.18533,0.36133 -1.44666,0.924 -0.26134,0.56133 -0.172,1.22667 0.22933,1.7 l 8.76933,10.368 c 0.31467,0.37467 0.76534,0.56533 1.21734,0.56533 0.36266,0 0.72933,-0.124 1.028,-0.376 0.672,-0.56933 0.75733,-1.57466 0.188,-2.24666 l -6.55067,-7.74667 h 4.33333 c 0.88,0 1.59334,-0.71333 1.59334,-1.59333 v -20.22 h 10.75866 v 20.22 c 0,0.88 0.71334,1.59333 1.59334,1.59333 h 4.33466 l -11.308,13.36933 -1.24533,-1.47333 c -0.56933,-0.672 -1.57467,-0.75733 -2.24667,-0.18933 -0.672,0.56933 -0.756,1.57466 -0.18666,2.24666 l 2.46266,2.91334 c 0.30267,0.35866 0.748,0.564 1.216,0.564 0.46934,0 0.91467,-0.20534 1.21734,-0.564 L 453.62492,594.22 c 0.40133,-0.47333 0.49067,-1.13867 0.22933,-1.7 -0.26133,-0.56267 -0.82533,-0.924 -1.44533,-0.924 h -6.176 v -9.688 h 9.064 c 0.88,0 1.59333,-0.71467 1.59333,-1.59467 0,-0.88 -0.71333,-1.59333 -1.59333,-1.59333"
     inkscape:connector-curvature="0" /><path
     id="path122"
     style="fill:#ffcc30;fill-opacity:1;fill-rule:nonzero;stroke:none;stroke-width:1.33333325"
     d="m 629.26825,578.72 h -0.53067 c -0.88133,0 -1.59466,0.71333 -1.59466,1.59333 0,0.88 0.71333,1.59467 1.59466,1.59467 h 0.53067 c 0.88,0 1.59333,-0.71467 1.59333,-1.59467 0,-0.88 -0.71333,-1.59333 -1.59333,-1.59333"
     inkscape:connector-curvature="0" /><path
     id="path126"
     style="fill:#ffcc30;fill-opacity:1;fill-rule:nonzero;stroke:none;stroke-width:1.33333325"
     d="m 637.82812,541.19533 h -5.35467 c -5.02,-10.32667 -15.30933,-17.19733 -25.91466,-17.19733 -8.31467,0 -16.22,3.59733 -21.688,9.87066 -0.57867,0.66267 -0.50934,1.66934 0.15333,2.24667 0.66533,0.58 1.67067,0.51067 2.24933,-0.15333 4.86134,-5.57734 11.892,-8.77734 19.28534,-8.77734 9.688,0 19.11066,6.532 23.44533,16.25467 0.264,0.592 0.84667,0.94533 1.456,0.94533 0.0333,0 0.0653,-0.009 0.1,-0.0107 0.0333,10e-4 0.0653,0.009 0.0987,0.009 h 6.16933 c 9.468,0 17.16933,7.70133 17.16933,17.16933 0,9.46534 -7.70133,17.168 -17.16933,17.168 h -3.812 c -0.88,0 -1.59467,0.71334 -1.59467,1.59334 0,0.88 0.71467,1.59333 1.59467,1.59333 h 3.812 c 11.22533,0 20.356,-9.13067 20.356,-20.35467 0,-11.22533 -9.13067,-20.35733 -20.356,-20.35733"
     inkscape:connector-curvature="0" /><path
     id="path130"
     style="fill:#ffcc30;fill-opacity:1;fill-rule:nonzero;stroke:none;stroke-width:1.33333325"
     d="m 627.43092,550.7956 c 0.0507,0.007 0.10267,0.016 0.156,0.016 h 5.53333 c 5.94267,0 11.468,3.47733 14.07734,8.86133 0.20666,0.42667 0.63333,0.67467 1.07733,0.67467 0.17467,0 0.352,-0.0387 0.52,-0.12133 0.59467,-0.288 0.84133,-1.00267 0.55333,-1.596 -3.00533,-6.20134 -9.376,-10.20934 -16.228,-10.20934 h -5.088 c -2.92133,-6.09333 -7.93733,-11.004 -13.87733,-13.54133 -0.60533,-0.25867 -1.308,0.0227 -1.568,0.63067 -0.25867,0.60666 0.0227,1.30933 0.63067,1.56933 5.62,2.4 10.34666,7.14533 12.96666,13.02267 0.19867,0.444 0.63467,0.70933 1.09334,0.70933 0.0507,0 0.10133,-0.009 0.15333,-0.016"
     inkscape:connector-curvature="0" /><path
     id="path134"
     style="fill:#ffcc30;fill-opacity:1;fill-rule:nonzero;stroke:none;stroke-width:1.33333325"
     d="m 648.14972,562.1576 c 0.34267,1.19467 0.54,2.43467 0.588,3.68267 0.0253,0.64266 0.55467,1.148 1.19467,1.148 h 0.0467 c 0.65867,-0.0253 1.17334,-0.58 1.148,-1.24134 -0.056,-1.43866 -0.28266,-2.868 -0.68,-4.248 -0.18133,-0.636 -0.84266,-1.00266 -1.47866,-0.82 -0.63334,0.18134 -1.00134,0.844 -0.81867,1.47867"
     inkscape:connector-curvature="0" /><path
     id="path138"
     style="fill:#ffcc30;fill-opacity:1;fill-rule:nonzero;stroke:none;stroke-width:1.33333325"
     d="m 624.18878,578.72 h -9.06533 v -7.344 c 0,-0.87867 -0.71334,-1.59333 -1.592,-1.59333 h -13.94534 c -0.88,0 -1.59333,0.71466 -1.59333,1.59333 v 7.344 h -22.70533 c -9.46534,0 -17.168,-7.70133 -17.168,-17.168 0,-9.468 7.70266,-17.16933 17.168,-17.16933 h 5.904 c 0.58933,0 1.09733,-0.32267 1.37333,-0.79867 0.124,-0.13333 0.228,-0.28933 0.3,-0.468 0.52933,-1.29867 1.172,-2.564 1.908,-3.75867 0.46267,-0.74933 0.22933,-1.732 -0.51867,-2.19333 -0.75066,-0.46267 -1.732,-0.22933 -2.19466,0.52 -0.692,1.12267 -1.304,2.30267 -1.836,3.51067 h -4.936 c -11.224,0 -20.35467,9.132 -20.35467,20.35733 0,11.224 9.13067,20.356 20.35467,20.356 h 22.70533 v 9.688 h -6.176 c -0.62,0 -1.18533,0.36133 -1.44533,0.924 -0.26267,0.56133 -0.172,1.22667 0.22933,1.7 l 8.76933,10.368 c 0.31467,0.37467 0.764,0.56533 1.21734,0.56533 0.36266,0 0.72933,-0.124 1.028,-0.376 0.672,-0.56933 0.756,-1.57466 0.188,-2.24666 l -6.552,-7.74667 h 4.33466 c 0.88,0 1.59334,-0.71333 1.59334,-1.59333 v -20.22 h 10.75866 v 20.22 c 0,0.88 0.71334,1.59333 1.59334,1.59333 h 4.33333 l -11.30667,13.36933 -1.24666,-1.47333 c -0.568,-0.672 -1.57334,-0.75733 -2.24667,-0.18933 -0.672,0.56933 -0.75467,1.57466 -0.18667,2.24666 l 2.46267,2.91334 c 0.304,0.35866 0.748,0.564 1.21733,0.564 0.46934,0 0.91467,-0.20534 1.216,-0.564 L 622.51678,594.22 c 0.40133,-0.47333 0.48933,-1.13867 0.22933,-1.7 -0.26133,-0.56267 -0.82533,-0.924 -1.44666,-0.924 h -6.176 v -9.688 h 9.06533 c 0.88,0 1.59333,-0.71467 1.59333,-1.59467 0,-0.88 -0.71333,-1.59333 -1.59333,-1.59333"
     inkscape:connector-curvature="0" /></svg>