<?xml version="1.0" encoding="UTF-8" standalone="no"?>
<svg
   xmlns:dc="http://purl.org/dc/elements/1.1/"
   xmlns:cc="http://creativecommons.org/ns#"
   xmlns:rdf="http://www.w3.org/1999/02/22-rdf-syntax-ns#"
   xmlns:svg="http://www.w3.org/2000/svg"
   xmlns="http://www.w3.org/2000/svg"
   viewBox="0 0 693.33331 693.33331"
   height="693.33331"
   width="693.33331"
   xml:space="preserve"
   id="svg2"
   version="1.1"><metadata
     id="metadata8"><rdf:RDF><cc:Work
         rdf:about=""><dc:format>image/svg+xml</dc:format><dc:type
           rdf:resource="http://purl.org/dc/dcmitype/StillImage" /><dc:title></dc:title></cc:Work></rdf:RDF></metadata><defs
     id="defs6"><clipPath
       id="clipPath18"
       clipPathUnits="userSpaceOnUse"><path
         id="path16"
         d="M 0,0 H 520 V 520 H 0 Z" /></clipPath><radialGradient
       id="radialGradient28"
       spreadMethod="pad"
       gradientTransform="matrix(260,0,0,-260,260,260)"
       gradientUnits="userSpaceOnUse"
       r="1"
       cy="0"
       cx="0"
       fy="0"
       fx="0"><stop
         id="stop24"
         offset="0"
         style="stop-opacity:1;stop-color:#ffffff" /><stop
         id="stop26"
         offset="1"
         style="stop-opacity:1;stop-color:#e7e8e9" /></radialGradient><clipPath
       id="clipPath38"
       clipPathUnits="userSpaceOnUse"><path
         id="path36"
         d="M 0,520 H 520 V 0 H 0 Z" /></clipPath></defs><g
     transform="matrix(1.3333333,0,0,-1.3333333,0,693.33333)"
     id="g10"><g
       id="g32"><g
         clip-path="url(#clipPath38)"
         id="g34"><g
           transform="translate(317,292.5698)"
           id="g40"><path
             id="path42"
             style="fill:#414142;fill-opacity:1;fill-rule:nonzero;stroke:none"
             d="m 0,0 h -1.333 c -2.209,0 -4,-1.791 -4,-4 0,-2.209 1.791,-4 4,-4 H 0 c 2.209,0 4,1.791 4,4 0,2.209 -1.791,4 -4,4" /></g><g
           transform="translate(338.4854,386.7515)"
           id="g44"><path
             id="path46"
             style="fill:#414142;fill-opacity:1;fill-rule:nonzero;stroke:none"
             d="m 0,0 h -13.44 c -12.6,25.922 -38.427,43.167 -65.045,43.167 -20.87,0 -40.711,-9.03 -54.434,-24.775 -1.452,-1.665 -1.279,-4.192 0.387,-5.643 1.665,-1.452 4.192,-1.279 5.643,0.386 12.204,14.001 29.847,22.032 48.404,22.032 24.317,0 47.965,-16.395 58.846,-40.796 0.664,-1.488 2.125,-2.372 3.656,-2.372 0.083,0 0.166,0.021 0.249,0.026 C -15.65,-7.98 -15.57,-8 -15.485,-8 H 0 c 23.761,0 43.091,-19.331 43.091,-43.091 0,-23.761 -19.33,-43.091 -43.091,-43.091 h -9.568 c -2.209,0 -4,-1.791 -4,-4 0,-2.209 1.791,-4 4,-4 H 0 c 28.172,0 51.091,22.919 51.091,51.091 C 51.091,-22.919 28.172,0 0,0" /></g><g
           transform="translate(312.3887,362.6577)"
           id="g48"><path
             id="path50"
             style="fill:#414142;fill-opacity:1;fill-rule:nonzero;stroke:none"
             d="m 0,0 c 0.129,-0.017 0.257,-0.039 0.391,-0.039 h 13.886 c 14.916,0 28.787,-8.731 35.337,-22.243 0.518,-1.07 1.588,-1.693 2.701,-1.693 0.44,0 0.885,0.097 1.307,0.302 1.491,0.723 2.113,2.517 1.391,4.008 C 47.467,-4.098 31.478,5.961 14.277,5.961 H 1.509 c -7.333,15.29 -19.923,27.619 -34.829,33.984 -1.521,0.65 -3.286,-0.056 -3.937,-1.581 -0.65,-1.524 0.057,-3.286 1.581,-3.937 14.107,-6.024 25.97,-17.938 32.547,-32.688 0.498,-1.116 1.594,-1.779 2.742,-1.779 0.128,0 0.258,0.023 0.387,0.04" /></g><g
           transform="translate(364.3896,334.1401)"
           id="g52"><path
             id="path54"
             style="fill:#414142;fill-opacity:1;fill-rule:nonzero;stroke:none"
             d="m 0,0 c 0.861,-3.002 1.358,-6.111 1.479,-9.241 0.062,-1.616 1.392,-2.885 2.996,-2.885 0.039,0 0.078,10e-4 0.117,0.002 1.655,0.063 2.946,1.457 2.883,3.113 C 7.336,-5.399 6.762,-1.812 5.768,1.654 5.311,3.247 3.651,4.169 2.057,3.711 0.464,3.254 -0.457,1.593 0,0" /></g><g
           transform="translate(304.25,292.5698)"
           id="g56"><path
             id="path58"
             style="fill:#414142;fill-opacity:1;fill-rule:nonzero;stroke:none"
             d="m 0,0 h -22.75 v 18.43 c 0,2.209 -1.791,4 -4,4 h -35 c -2.209,0 -4,-1.791 -4,-4 V 0 h -56.985 c -23.761,0 -43.091,19.33 -43.091,43.091 0,23.76 19.33,43.091 43.091,43.091 h 14.818 c 1.479,0 2.755,0.811 3.447,2.003 0.309,0.339 0.57,0.729 0.753,1.178 1.328,3.26 2.94,6.434 4.789,9.435 1.16,1.88 0.575,4.345 -1.305,5.504 -1.881,1.16 -4.345,0.573 -5.504,-1.306 -1.739,-2.82 -3.276,-5.78 -4.611,-8.814 h -12.387 c -28.172,0 -51.091,-22.92 -51.091,-51.091 0,-28.172 22.919,-51.091 51.091,-51.091 h 56.985 v -24.32 h -15.5 c -1.557,0 -2.973,-0.904 -3.628,-2.316 -0.656,-1.413 -0.432,-3.077 0.574,-4.267 l 22.011,-26.026 c 0.791,-0.936 1.919,-1.417 3.056,-1.417 0.912,0 1.83,0.31 2.581,0.945 1.687,1.427 1.898,3.951 0.471,5.638 l -16.443,19.443 h 10.878 c 2.209,0 4,1.791 4,4 v 50.75 h 27 v -50.75 c 0,-2.209 1.791,-4 4,-4 h 10.879 l -28.379,-33.555 -3.129,3.7 c -1.426,1.686 -3.95,1.897 -5.637,0.471 -1.687,-1.426 -1.898,-3.951 -0.471,-5.637 l 6.183,-7.312 c 0.76,-0.898 1.877,-1.417 3.054,-1.417 1.177,0 2.294,0.519 3.055,1.417 l 37,43.75 c 1.005,1.19 1.229,2.854 0.574,4.267 -0.656,1.412 -2.071,2.316 -3.629,2.316 h -15.5 V -8 L 0,-8 c 2.209,0 4,1.791 4,4 0,2.209 -1.791,4 -4,4" /></g><g
           transform="translate(91.9453,85.96)"
           id="g60"><path
             id="path62"
             style="fill:#129d79;fill-opacity:1;fill-rule:nonzero;stroke:none"
             d="m 0,0 h -0.398 c -0.66,0 -1.195,-0.535 -1.195,-1.195 0,-0.66 0.535,-1.196 1.195,-1.196 H 0 c 0.66,0 1.195,0.536 1.195,1.196 C 1.195,-0.535 0.66,0 0,0" /></g><g
           transform="translate(98.3657,114.1035)"
           id="g64"><path
             id="path66"
             style="fill:#129d79;fill-opacity:1;fill-rule:nonzero;stroke:none"
             d="m 0,0 h -4.016 c -3.765,7.745 -11.483,12.898 -19.437,12.898 -6.236,0 -12.165,-2.698 -16.265,-7.403 -0.434,-0.497 -0.383,-1.252 0.115,-1.685 0.498,-0.435 1.253,-0.383 1.686,0.115 3.647,4.183 8.919,6.583 14.464,6.583 7.266,0 14.333,-4.899 17.584,-12.191 0.199,-0.444 0.636,-0.709 1.093,-0.709 0.025,0 0.049,0.007 0.074,0.008 0.025,-10e-4 0.049,-0.007 0.075,-0.007 H 0 c 7.1,0 12.876,-5.776 12.876,-12.877 C 12.876,-22.367 7.1,-28.144 0,-28.144 h -2.859 c -0.661,0 -1.196,-0.535 -1.196,-1.195 0,-0.66 0.535,-1.195 1.196,-1.195 H 0 c 8.418,0 15.267,6.848 15.267,15.266 C 15.267,-6.849 8.418,0 0,0" /></g><g
           transform="translate(90.5674,106.9033)"
           id="g68"><path
             id="path70"
             style="fill:#129d79;fill-opacity:1;fill-rule:nonzero;stroke:none"
             d="m 0,0 c 0.039,-0.005 0.077,-0.012 0.117,-0.012 h 4.15 c 4.457,0 8.602,-2.608 10.559,-6.646 0.154,-0.32 0.474,-0.506 0.807,-0.506 0.131,0 0.264,0.029 0.39,0.091 0.446,0.216 0.632,0.752 0.416,1.197 C 14.184,-1.225 9.406,1.781 4.267,1.781 H 0.451 c -2.191,4.57 -5.953,8.253 -10.408,10.156 -0.454,0.194 -0.981,-0.017 -1.176,-0.473 -0.194,-0.455 0.017,-0.982 0.473,-1.177 4.215,-1.8 7.76,-5.359 9.725,-9.767 0.149,-0.333 0.477,-0.532 0.82,-0.532 0.038,0 0.076,0.007 0.115,0.012" /></g><g
           transform="translate(106.1064,98.3818)"
           id="g72"><path
             id="path74"
             style="fill:#129d79;fill-opacity:1;fill-rule:nonzero;stroke:none"
             d="M 0,0 C 0.257,-0.896 0.406,-1.826 0.442,-2.762 0.46,-3.244 0.858,-3.623 1.337,-3.623 h 0.035 c 0.495,0.019 0.88,0.435 0.861,0.931 C 2.192,-1.613 2.021,-0.541 1.723,0.494 1.587,0.971 1.091,1.246 0.614,1.109 0.139,0.973 -0.137,0.476 0,0" /></g><g
           transform="translate(88.1357,85.96)"
           id="g76"><path
             id="path78"
             style="fill:#129d79;fill-opacity:1;fill-rule:nonzero;stroke:none"
             d="m 0,0 h -6.798 v 5.508 c 0,0.659 -0.535,1.195 -1.196,1.195 h -10.458 c -0.66,0 -1.195,-0.536 -1.195,-1.195 V 0 h -17.028 c -7.1,0 -12.877,5.776 -12.877,12.876 0,7.101 5.777,12.877 12.877,12.877 h 4.427 c 0.442,0 0.824,0.242 1.031,0.599 0.092,0.1 0.17,0.217 0.224,0.351 0.397,0.974 0.879,1.923 1.432,2.819 0.346,0.562 0.171,1.299 -0.391,1.645 -0.562,0.347 -1.298,0.172 -1.644,-0.39 -0.52,-0.842 -0.979,-1.727 -1.378,-2.633 h -3.701 c -8.418,0 -15.267,-6.849 -15.267,-15.268 0,-8.418 6.849,-15.267 15.267,-15.267 h 17.028 v -7.266 h -4.632 c -0.465,0 -0.888,-0.271 -1.084,-0.693 -0.196,-0.421 -0.129,-0.92 0.172,-1.275 l 6.577,-7.776 c 0.236,-0.281 0.573,-0.424 0.913,-0.424 0.273,0 0.547,0.093 0.771,0.282 0.504,0.427 0.567,1.181 0.141,1.685 l -4.914,5.81 h 3.251 c 0.66,0 1.195,0.535 1.195,1.195 V 4.312 h 8.069 v -15.165 c 0,-0.66 0.535,-1.195 1.194,-1.195 h 3.251 l -8.48,-10.027 -0.935,1.105 c -0.426,0.504 -1.18,0.568 -1.684,0.142 -0.504,-0.427 -0.567,-1.181 -0.141,-1.685 l 1.848,-2.185 c 0.227,-0.269 0.56,-0.423 0.912,-0.423 0.352,0 0.686,0.154 0.913,0.423 l 11.056,13.073 c 0.3,0.355 0.368,0.854 0.172,1.275 -0.196,0.422 -0.619,0.693 -1.085,0.693 h -4.631 v 7.266 H 0 c 0.66,0 1.195,0.536 1.195,1.196 C 1.195,-0.535 0.66,0 0,0" /></g><g
           transform="translate(218.6143,85.96)"
           id="g80"><path
             id="path82"
             style="fill:#9c1d33;fill-opacity:1;fill-rule:nonzero;stroke:none"
             d="m 0,0 h -0.398 c -0.661,0 -1.196,-0.535 -1.196,-1.195 0,-0.66 0.535,-1.196 1.196,-1.196 H 0 c 0.66,0 1.195,0.536 1.195,1.196 C 1.195,-0.535 0.66,0 0,0" /></g><g
           transform="translate(225.0342,114.1035)"
           id="g84"><path
             id="path86"
             style="fill:#9c1d33;fill-opacity:1;fill-rule:nonzero;stroke:none"
             d="m 0,0 h -4.016 c -3.765,7.745 -11.483,12.898 -19.437,12.898 -6.236,0 -12.165,-2.698 -16.265,-7.403 -0.434,-0.497 -0.382,-1.252 0.115,-1.685 0.498,-0.435 1.253,-0.383 1.686,0.115 3.647,4.183 8.919,6.583 14.464,6.583 7.266,0 14.333,-4.899 17.585,-12.191 0.198,-0.444 0.635,-0.709 1.092,-0.709 0.025,0 0.05,0.007 0.074,0.008 0.026,-10e-4 0.049,-0.007 0.075,-0.007 H 0 c 7.1,0 12.876,-5.776 12.876,-12.877 C 12.876,-22.367 7.1,-28.144 0,-28.144 h -2.859 c -0.66,0 -1.195,-0.535 -1.195,-1.195 0,-0.66 0.535,-1.195 1.195,-1.195 H 0 c 8.418,0 15.267,6.848 15.267,15.266 C 15.267,-6.849 8.418,0 0,0" /></g><g
           transform="translate(217.2363,106.9033)"
           id="g88"><path
             id="path90"
             style="fill:#9c1d33;fill-opacity:1;fill-rule:nonzero;stroke:none"
             d="m 0,0 c 0.039,-0.005 0.077,-0.012 0.117,-0.012 h 4.149 c 4.457,0 8.602,-2.608 10.559,-6.646 0.155,-0.32 0.475,-0.506 0.807,-0.506 0.132,0 0.265,0.029 0.391,0.091 0.446,0.216 0.631,0.752 0.415,1.197 C 14.184,-1.225 9.406,1.781 4.266,1.781 H 0.451 c -2.191,4.57 -5.953,8.253 -10.408,10.156 -0.454,0.194 -0.982,-0.017 -1.176,-0.473 -0.195,-0.455 0.017,-0.982 0.472,-1.177 4.216,-1.8 7.761,-5.359 9.726,-9.767 0.149,-0.333 0.476,-0.532 0.819,-0.532 0.039,0 0.077,0.007 0.116,0.012" /></g><g
           transform="translate(232.7749,98.3818)"
           id="g92"><path
             id="path94"
             style="fill:#9c1d33;fill-opacity:1;fill-rule:nonzero;stroke:none"
             d="M 0,0 C 0.257,-0.896 0.406,-1.826 0.442,-2.762 0.46,-3.244 0.858,-3.623 1.337,-3.623 h 0.035 c 0.495,0.019 0.88,0.435 0.861,0.931 C 2.192,-1.613 2.021,-0.541 1.724,0.494 1.587,0.971 1.091,1.246 0.614,1.109 0.139,0.973 -0.137,0.476 0,0" /></g><g
           transform="translate(214.8042,85.96)"
           id="g96"><path
             id="path98"
             style="fill:#9c1d33;fill-opacity:1;fill-rule:nonzero;stroke:none"
             d="m 0,0 h -6.798 v 5.508 c 0,0.659 -0.535,1.195 -1.195,1.195 h -10.459 c -0.66,0 -1.195,-0.536 -1.195,-1.195 V 0 h -17.028 c -7.1,0 -12.876,5.776 -12.876,12.876 0,7.101 5.776,12.877 12.876,12.877 h 4.428 c 0.441,0 0.823,0.242 1.03,0.599 0.092,0.1 0.17,0.217 0.225,0.351 0.396,0.974 0.878,1.923 1.431,2.819 0.346,0.562 0.172,1.299 -0.39,1.645 -0.562,0.347 -1.299,0.172 -1.645,-0.39 -0.52,-0.842 -0.979,-1.727 -1.378,-2.633 h -3.701 c -8.418,0 -15.267,-6.849 -15.267,-15.268 0,-8.418 6.849,-15.267 15.267,-15.267 h 17.028 v -7.266 h -4.632 c -0.465,0 -0.888,-0.271 -1.084,-0.693 -0.196,-0.421 -0.129,-0.92 0.172,-1.275 l 6.577,-7.776 c 0.236,-0.281 0.573,-0.424 0.913,-0.424 0.273,0 0.547,0.093 0.771,0.282 0.504,0.427 0.567,1.181 0.141,1.685 l -4.914,5.81 h 3.251 c 0.66,0 1.195,0.535 1.195,1.195 V 4.312 h 8.069 v -15.165 c 0,-0.66 0.535,-1.195 1.195,-1.195 h 3.25 l -8.48,-10.027 -0.935,1.105 c -0.426,0.504 -1.18,0.568 -1.684,0.142 -0.504,-0.427 -0.567,-1.181 -0.141,-1.685 l 1.848,-2.185 c 0.227,-0.269 0.561,-0.423 0.912,-0.423 0.352,0 0.686,0.154 0.913,0.423 l 11.057,13.073 c 0.3,0.355 0.367,0.854 0.171,1.275 -0.196,0.422 -0.619,0.693 -1.085,0.693 h -4.631 v 7.266 H 0 c 0.66,0 1.195,0.536 1.195,1.196 C 1.195,-0.535 0.66,0 0,0" /></g><g
           transform="translate(345.2822,85.96)"
           id="g100"><path
             id="path102"
             style="fill:#005183;fill-opacity:1;fill-rule:nonzero;stroke:none"
             d="m 0,0 h -0.397 c -0.661,0 -1.196,-0.535 -1.196,-1.195 0,-0.66 0.535,-1.196 1.196,-1.196 H 0 c 0.66,0 1.195,0.536 1.195,1.196 C 1.195,-0.535 0.66,0 0,0" /></g><g
           transform="translate(351.7031,114.1035)"
           id="g104"><path
             id="path106"
             style="fill:#005183;fill-opacity:1;fill-rule:nonzero;stroke:none"
             d="m 0,0 h -4.017 c -3.764,7.745 -11.482,12.898 -19.436,12.898 -6.236,0 -12.165,-2.698 -16.266,-7.403 -0.433,-0.497 -0.382,-1.252 0.115,-1.685 0.499,-0.435 1.253,-0.383 1.687,0.115 3.647,4.183 8.919,6.583 14.464,6.583 7.266,0 14.333,-4.899 17.584,-12.191 0.199,-0.444 0.636,-0.709 1.093,-0.709 0.024,0 0.049,0.007 0.074,0.008 0.025,-10e-4 0.049,-0.007 0.074,-0.007 H 0 c 7.1,0 12.876,-5.776 12.876,-12.877 C 12.876,-22.367 7.1,-28.144 0,-28.144 h -2.859 c -0.661,0 -1.196,-0.535 -1.196,-1.195 0,-0.66 0.535,-1.195 1.196,-1.195 H 0 c 8.418,0 15.267,6.848 15.267,15.266 C 15.267,-6.849 8.418,0 0,0" /></g><g
           transform="translate(343.9043,106.9033)"
           id="g108"><path
             id="path110"
             style="fill:#005183;fill-opacity:1;fill-rule:nonzero;stroke:none"
             d="m 0,0 c 0.039,-0.005 0.077,-0.012 0.117,-0.012 h 4.15 c 4.457,0 8.602,-2.608 10.559,-6.646 0.154,-0.32 0.475,-0.506 0.807,-0.506 0.132,0 0.264,0.029 0.39,0.091 0.446,0.216 0.632,0.752 0.416,1.197 C 14.185,-1.225 9.406,1.781 4.267,1.781 H 0.451 c -2.191,4.57 -5.953,8.253 -10.407,10.156 -0.454,0.194 -0.982,-0.017 -1.177,-0.473 -0.194,-0.455 0.018,-0.982 0.473,-1.177 4.215,-1.8 7.76,-5.359 9.725,-9.767 0.149,-0.333 0.477,-0.532 0.82,-0.532 0.038,0 0.077,0.007 0.115,0.012" /></g><g
           transform="translate(359.4434,98.3818)"
           id="g112"><path
             id="path114"
             style="fill:#005183;fill-opacity:1;fill-rule:nonzero;stroke:none"
             d="m 0,0 c 0.258,-0.896 0.406,-1.826 0.441,-2.762 0.02,-0.482 0.417,-0.861 0.896,-0.861 h 0.035 c 0.495,0.019 0.881,0.435 0.861,0.931 C 2.192,-1.613 2.021,-0.541 1.724,0.494 1.587,0.971 1.091,1.246 0.614,1.109 0.139,0.973 -0.137,0.476 0,0" /></g><g
           transform="translate(341.4727,85.96)"
           id="g116"><path
             id="path118"
             style="fill:#005183;fill-opacity:1;fill-rule:nonzero;stroke:none"
             d="m 0,0 h -6.798 v 5.508 c 0,0.659 -0.535,1.195 -1.195,1.195 h -10.459 c -0.66,0 -1.195,-0.536 -1.195,-1.195 V 0 h -17.028 c -7.1,0 -12.877,5.776 -12.877,12.876 0,7.101 5.777,12.877 12.877,12.877 h 4.428 c 0.441,0 0.823,0.242 1.03,0.599 0.092,0.1 0.17,0.217 0.225,0.351 0.396,0.974 0.879,1.923 1.43,2.819 0.347,0.562 0.172,1.299 -0.389,1.645 -0.563,0.347 -1.298,0.172 -1.645,-0.39 -0.519,-0.842 -0.979,-1.727 -1.378,-2.633 h -3.701 c -8.419,0 -15.267,-6.849 -15.267,-15.268 0,-8.418 6.848,-15.267 15.267,-15.267 h 17.028 v -7.266 h -4.631 c -0.466,0 -0.889,-0.271 -1.085,-0.693 -0.196,-0.421 -0.129,-0.92 0.172,-1.275 l 6.577,-7.776 c 0.236,-0.281 0.574,-0.424 0.913,-0.424 0.272,0 0.547,0.093 0.771,0.282 0.504,0.427 0.568,1.181 0.141,1.685 l -4.913,5.81 h 3.25 c 0.66,0 1.195,0.535 1.195,1.195 V 4.312 h 8.069 v -15.165 c 0,-0.66 0.535,-1.195 1.195,-1.195 h 3.251 l -8.481,-10.027 -0.934,1.105 c -0.427,0.504 -1.181,0.568 -1.685,0.142 -0.504,-0.427 -0.567,-1.181 -0.14,-1.685 l 1.847,-2.185 c 0.227,-0.269 0.561,-0.423 0.912,-0.423 0.352,0 0.686,0.154 0.913,0.423 l 11.056,13.073 c 0.301,0.355 0.368,0.854 0.172,1.275 -0.196,0.422 -0.619,0.693 -1.084,0.693 h -4.632 v 7.266 H 0 c 0.66,0 1.195,0.536 1.195,1.196 C 1.195,-0.535 0.66,0 0,0" /></g><g
           transform="translate(471.9512,85.96)"
           id="g120"><path
             id="path122"
             style="fill:#e5af4e;fill-opacity:1;fill-rule:nonzero;stroke:none"
             d="m 0,0 h -0.398 c -0.661,0 -1.196,-0.535 -1.196,-1.195 0,-0.66 0.535,-1.196 1.196,-1.196 H 0 c 0.66,0 1.195,0.536 1.195,1.196 C 1.195,-0.535 0.66,0 0,0" /></g><g
           transform="translate(478.3711,114.1035)"
           id="g124"><path
             id="path126"
             style="fill:#e5af4e;fill-opacity:1;fill-rule:nonzero;stroke:none"
             d="m 0,0 h -4.016 c -3.765,7.745 -11.482,12.898 -19.436,12.898 -6.236,0 -12.165,-2.698 -16.266,-7.403 -0.434,-0.497 -0.382,-1.252 0.115,-1.685 0.499,-0.435 1.253,-0.383 1.687,0.115 3.646,4.183 8.919,6.583 14.464,6.583 7.266,0 14.333,-4.899 17.584,-12.191 0.198,-0.444 0.635,-0.709 1.092,-0.709 0.025,0 0.049,0.007 0.075,0.008 0.025,-10e-4 0.049,-0.007 0.074,-0.007 H 0 c 7.101,0 12.877,-5.776 12.877,-12.877 0,-7.099 -5.776,-12.876 -12.877,-12.876 h -2.859 c -0.66,0 -1.196,-0.535 -1.196,-1.195 0,-0.66 0.536,-1.195 1.196,-1.195 H 0 c 8.419,0 15.267,6.848 15.267,15.266 C 15.267,-6.849 8.419,0 0,0" /></g><g
           transform="translate(470.5732,106.9033)"
           id="g128"><path
             id="path130"
             style="fill:#e5af4e;fill-opacity:1;fill-rule:nonzero;stroke:none"
             d="m 0,0 c 0.038,-0.005 0.077,-0.012 0.117,-0.012 h 4.15 c 4.457,0 8.601,-2.608 10.558,-6.646 0.155,-0.32 0.475,-0.506 0.808,-0.506 0.131,0 0.264,0.029 0.39,0.091 0.446,0.216 0.631,0.752 0.415,1.197 C 14.184,-1.225 9.406,1.781 4.267,1.781 H 0.451 c -2.191,4.57 -5.953,8.253 -10.408,10.156 -0.454,0.194 -0.981,-0.017 -1.176,-0.473 -0.194,-0.455 0.017,-0.982 0.473,-1.177 4.215,-1.8 7.76,-5.359 9.725,-9.767 0.149,-0.333 0.476,-0.532 0.82,-0.532 0.038,0 0.076,0.007 0.115,0.012" /></g><g
           transform="translate(486.1123,98.3818)"
           id="g132"><path
             id="path134"
             style="fill:#e5af4e;fill-opacity:1;fill-rule:nonzero;stroke:none"
             d="M 0,0 C 0.257,-0.896 0.405,-1.826 0.441,-2.762 0.46,-3.244 0.857,-3.623 1.337,-3.623 h 0.035 c 0.494,0.019 0.88,0.435 0.861,0.931 C 2.191,-1.613 2.021,-0.541 1.723,0.494 1.587,0.971 1.091,1.246 0.614,1.109 0.139,0.973 -0.137,0.476 0,0" /></g><g
           transform="translate(468.1416,85.96)"
           id="g136"><path
             id="path138"
             style="fill:#e5af4e;fill-opacity:1;fill-rule:nonzero;stroke:none"
             d="m 0,0 h -6.799 v 5.508 c 0,0.659 -0.535,1.195 -1.194,1.195 h -10.459 c -0.66,0 -1.195,-0.536 -1.195,-1.195 V 0 h -17.029 c -7.099,0 -12.876,5.776 -12.876,12.876 0,7.101 5.777,12.877 12.876,12.877 h 4.428 c 0.442,0 0.823,0.242 1.03,0.599 0.093,0.1 0.171,0.217 0.225,0.351 0.397,0.974 0.879,1.923 1.431,2.819 0.347,0.562 0.172,1.299 -0.389,1.645 -0.563,0.347 -1.299,0.172 -1.646,-0.39 -0.519,-0.842 -0.978,-1.727 -1.377,-2.633 h -3.702 c -8.418,0 -15.266,-6.849 -15.266,-15.268 0,-8.418 6.848,-15.267 15.266,-15.267 h 17.029 v -7.266 h -4.632 c -0.465,0 -0.889,-0.271 -1.084,-0.693 -0.197,-0.421 -0.129,-0.92 0.172,-1.275 l 6.577,-7.776 c 0.236,-0.281 0.573,-0.424 0.913,-0.424 0.272,0 0.547,0.093 0.771,0.282 0.504,0.427 0.567,1.181 0.141,1.685 l -4.914,5.81 h 3.251 c 0.66,0 1.195,0.535 1.195,1.195 V 4.312 h 8.069 v -15.165 c 0,-0.66 0.535,-1.195 1.195,-1.195 h 3.25 l -8.48,-10.027 -0.935,1.105 c -0.426,0.504 -1.18,0.568 -1.685,0.142 -0.504,-0.427 -0.566,-1.181 -0.14,-1.685 l 1.847,-2.185 c 0.228,-0.269 0.561,-0.423 0.913,-0.423 0.352,0 0.686,0.154 0.912,0.423 l 11.057,13.073 c 0.301,0.355 0.367,0.854 0.172,1.275 -0.196,0.422 -0.619,0.693 -1.085,0.693 h -4.632 v 7.266 H 0 c 0.66,0 1.195,0.536 1.195,1.196 C 1.195,-0.535 0.66,0 0,0" /></g></g></g></g></svg>