<?xml version="1.0" encoding="UTF-8" standalone="no"?>
<svg
   xmlns:dc="http://purl.org/dc/elements/1.1/"
   xmlns:cc="http://creativecommons.org/ns#"
   xmlns:rdf="http://www.w3.org/1999/02/22-rdf-syntax-ns#"
   xmlns:svg="http://www.w3.org/2000/svg"
   xmlns="http://www.w3.org/2000/svg"
   viewBox="0 0 786.66669 577.33331"
   height="577.33331"
   width="786.66669"
   xml:space="preserve"
   id="svg2"
   version="1.1"><metadata
     id="metadata8"><rdf:RDF><cc:Work
         rdf:about=""><dc:format>image/svg+xml</dc:format><dc:type
           rdf:resource="http://purl.org/dc/dcmitype/StillImage" /><dc:title></dc:title></cc:Work></rdf:RDF></metadata><defs
     id="defs6"><clipPath
       id="clipPath18"
       clipPathUnits="userSpaceOnUse"><path
         id="path16"
         d="M 0,433 H 590 V 0 H 0 Z" /></clipPath></defs><g
     transform="matrix(1.3333333,0,0,-1.3333333,0,577.33333)"
     id="g10"><path
       d="m 540.868,392.632 c 0,-16.772 -13.596,-30.368 -30.368,-30.368 -16.772,0 -30.368,13.596 -30.368,30.368 0,16.772 13.596,30.368 30.368,30.368 16.772,0 30.368,-13.596 30.368,-30.368"
       style="fill:#662c91;fill-opacity:1;fill-rule:nonzero;stroke:none"
       id="path22" /><path
       d="m 531.4183,392.6361 c 0,-11.551 -9.364,-20.914 -20.914,-20.914 -11.551,0 -20.915,9.363 -20.915,20.914 0,11.551 9.364,20.914 20.915,20.914 11.55,0 20.914,-9.363 20.914,-20.914"
       style="fill:#ffffff;fill-opacity:1;fill-rule:nonzero;stroke:none"
       id="path26" /><path
       id="path28"
       style="fill:#ffffff;fill-opacity:1;fill-rule:nonzero;stroke:none"
       d="m 512.252,411.248 h -3.76 v 6.016 h 3.76 z" /><path
       d="m 508.8457,374.0157 3.76,0.018 0.029,-6.016 -3.76,-0.018 z"
       style="fill:#ffffff;fill-opacity:1;fill-rule:nonzero;stroke:none"
       id="path32" /><path
       d="m 529.1202,390.933 -0.009,3.76 6.016,0.015 0.009,-3.761 z"
       style="fill:#ffffff;fill-opacity:1;fill-rule:nonzero;stroke:none"
       id="path36" /><path
       d="m 491.8796,394.2495 0.027,-3.76 -6.016,-0.043 -0.027,3.76 z"
       style="fill:#ffffff;fill-opacity:1;fill-rule:nonzero;stroke:none"
       id="path40" /><path
       d="m 498.1118,406.6326 -2.57,-2.745 -4.392,4.112 2.57,2.745 z"
       style="fill:#ffffff;fill-opacity:1;fill-rule:nonzero;stroke:none"
       id="path44" /><path
       d="m 522.9633,378.6994 2.557,2.757 4.411,-4.09 -2.557,-2.758 z"
       style="fill:#ffffff;fill-opacity:1;fill-rule:nonzero;stroke:none"
       id="path48" /><path
       d="m 524.4706,405.0619 -2.751,2.563 4.101,4.402 2.751,-2.563 z"
       style="fill:#ffffff;fill-opacity:1;fill-rule:nonzero;stroke:none"
       id="path52" /><path
       d="m 496.5973,380.1432 2.763,-2.55 -4.08,-4.421 -2.763,2.55 z"
       style="fill:#ffffff;fill-opacity:1;fill-rule:nonzero;stroke:none"
       id="path56" /><path
       id="path58"
       style="fill:#414142;fill-opacity:1;fill-rule:nonzero;stroke:none"
       d="m 479.215,114.906 h -367.1 v 235.498 h 367.1 z" /><path
       id="path60"
       style="fill:#00aeef;fill-opacity:1;fill-rule:nonzero;stroke:none"
       d="M 459.582,143.91 H 131.75 v 185.008 h 327.832 z" /><path
       id="path62"
       style="fill:#f68f75;fill-opacity:1;fill-rule:nonzero;stroke:none"
       d="M 419.218,271.739 H 171.782 v 124.359 h 247.436 z" /><path
       d="m 356.9102,307.2087 -61.41,35.47 -61.667,-35.47 -62.051,-35.47 h 247.436 z"
       style="fill:#f26c55;fill-opacity:1;fill-rule:nonzero;stroke:none"
       id="path66" /><path
       d="m 356.9102,358.0078 -61.41,-36.09 -61.667,36.09 -62.051,38.09 h 247.436 z"
       style="fill:#bf5c48;fill-opacity:1;fill-rule:nonzero;stroke:none"
       id="path70" /><path
       d="m 356.9102,362.0078 -61.41,-33.09 -61.667,33.09 -62.051,34.09 h 247.436 z"
       style="fill:#f26c55;fill-opacity:1;fill-rule:nonzero;stroke:none"
       id="path74" /><path
       d="m 305.6396,129.0656 c 0,-5.509 -4.466,-9.974 -9.974,-9.974 -5.509,0 -9.974,4.465 -9.974,9.974 0,5.509 4.465,9.974 9.974,9.974 5.508,0 9.974,-4.465 9.974,-9.974"
       style="fill:#ffffff;fill-opacity:1;fill-rule:nonzero;stroke:none"
       id="path78" /><path
       d="m 109.7005,391.5307 c 0,-16.772 -13.596,-30.368 -30.368,-30.368 -16.772,0 -30.368,13.596 -30.368,30.368 0,16.772 13.596,30.368 30.368,30.368 16.772,0 30.368,-13.596 30.368,-30.368"
       style="fill:#009444;fill-opacity:1;fill-rule:nonzero;stroke:none"
       id="path82" /><path
       d="m 87.5718,398.4413 h -7.259 v 1.204 c 0,1.281 -0.085,2.12 -0.252,2.516 -0.168,0.395 -0.527,0.592 -1.078,0.592 -0.444,0 -0.776,-0.17 -0.997,-0.512 -0.222,-0.341 -0.333,-0.853 -0.333,-1.536 0,-1.138 0.228,-1.935 0.683,-2.39 0.443,-0.455 1.749,-1.342 3.917,-2.659 1.845,-1.114 3.103,-1.968 3.774,-2.561 0.67,-0.593 1.236,-1.432 1.698,-2.515 0.461,-1.085 0.692,-2.435 0.692,-4.052 0,-2.588 -0.624,-4.618 -1.869,-6.092 -1.246,-1.473 -3.115,-2.384 -5.606,-2.731 v -2.731 h -3.343 v 2.821 c -1.94,0.191 -3.636,0.937 -5.085,2.237 -1.45,1.299 -2.174,3.567 -2.174,6.801 v 1.42 h 7.259 v -1.779 c 0,-1.953 0.075,-3.166 0.225,-3.639 0.149,-0.473 0.512,-0.71 1.087,-0.71 0.491,0 0.856,0.165 1.096,0.495 0.239,0.329 0.36,0.817 0.36,1.464 0,1.629 -0.114,2.794 -0.342,3.495 -0.228,0.701 -1.006,1.464 -2.336,2.291 -2.216,1.389 -3.723,2.411 -4.519,3.064 -0.797,0.652 -1.486,1.572 -2.066,2.758 -0.582,1.186 -0.872,2.527 -0.872,4.025 0,2.168 0.614,3.869 1.842,5.103 1.227,1.234 3.069,1.994 5.525,2.282 v 2.318 h 3.343 v -2.318 c 2.239,-0.288 3.917,-1.039 5.031,-2.255 1.114,-1.216 1.671,-2.896 1.671,-5.04 0,-0.3 -0.024,-0.755 -0.072,-1.366"
       style="fill:#ffffff;fill-opacity:1;fill-rule:nonzero;stroke:none"
       id="path86" /><path
       d="m 67.7359,240.1484 c 0,-16.772 -13.596,-30.368 -30.368,-30.368 -16.772,0 -30.368,13.596 -30.368,30.368 0,16.772 13.596,30.368 30.368,30.368 16.772,0 30.368,-13.596 30.368,-30.368"
       style="fill:#fbb03f;fill-opacity:1;fill-rule:nonzero;stroke:none"
       id="path90" /><path
       d="m 326.0651,43.2648 c 0,-16.772 -13.596,-30.368 -30.368,-30.368 -16.772,0 -30.368,13.596 -30.368,30.368 0,16.772 13.596,30.368 30.368,30.368 16.772,0 30.368,-13.596 30.368,-30.368"
       style="fill:#f15a29;fill-opacity:1;fill-rule:nonzero;stroke:none"
       id="path94" /><path
       d="m 60.7173,240.1484 c 0,-12.895 -10.454,-23.349 -23.349,-23.349 -12.896,0 -23.35,10.454 -23.35,23.349 0,12.895 10.454,23.349 23.35,23.349 12.895,0 23.349,-10.454 23.349,-23.349"
       style="fill:#ffffff;fill-opacity:1;fill-rule:nonzero;stroke:none"
       id="path98" /><path
       d="m 57.2149,240.1484 c 0,-10.961 -8.886,-19.847 -19.847,-19.847 -10.961,0 -19.847,8.886 -19.847,19.847 0,10.961 8.886,19.847 19.847,19.847 10.961,0 19.847,-8.886 19.847,-19.847"
       style="fill:#ffffff;fill-opacity:1;fill-rule:nonzero;stroke:none"
       id="path102" /><path
       d="m 57.2149,240.1484 c 0,-10.961 -8.886,-19.847 -19.847,-19.847 -10.961,0 -19.847,8.886 -19.847,19.847 0,10.961 8.886,19.847 19.847,19.847 10.961,0 19.847,-8.886 19.847,-19.847 z"
       style="fill:none;stroke:#fbb03f;stroke-width:1.14999998;stroke-linecap:butt;stroke-linejoin:miter;stroke-miterlimit:10;stroke-dasharray:none;stroke-opacity:1"
       id="path106" /><path
       d="m 43.639,245.0539 h -6.352 v 1.053 c 0,1.122 -0.074,1.856 -0.22,2.202 -0.147,0.345 -0.462,0.518 -0.943,0.518 -0.388,0 -0.679,-0.149 -0.873,-0.448 -0.194,-0.298 -0.291,-0.746 -0.291,-1.344 0,-0.996 0.199,-1.693 0.598,-2.091 0.387,-0.399 1.53,-1.174 3.427,-2.327 1.614,-0.975 2.715,-1.722 3.302,-2.241 0.587,-0.519 1.082,-1.252 1.486,-2.201 0.403,-0.949 0.605,-2.131 0.605,-3.546 0,-2.264 -0.545,-4.04 -1.635,-5.33 -1.091,-1.289 -2.726,-2.085 -4.906,-2.39 v -2.389 h -2.924 v 2.468 c -1.698,0.167 -3.182,0.82 -4.45,1.958 -1.268,1.137 -1.902,3.121 -1.902,5.951 v 1.242 h 6.352 v -1.557 c 0,-1.708 0.065,-2.769 0.196,-3.184 0.131,-0.414 0.449,-0.621 0.952,-0.621 0.429,0 0.749,0.144 0.959,0.433 0.209,0.288 0.314,0.715 0.314,1.281 0,1.425 -0.1,2.445 -0.299,3.058 -0.199,0.613 -0.88,1.281 -2.043,2.005 -1.94,1.216 -3.258,2.109 -3.955,2.68 -0.697,0.572 -1.3,1.377 -1.808,2.414 -0.509,1.038 -0.762,2.212 -0.762,3.522 0,1.897 0.536,3.386 1.611,4.466 1.074,1.079 2.686,1.745 4.835,1.996 v 2.029 h 2.924 v -2.029 c 1.96,-0.251 3.428,-0.909 4.403,-1.973 0.975,-1.064 1.462,-2.534 1.462,-4.41 0,-0.262 -0.021,-0.66 -0.063,-1.195"
       style="fill:#fbb03f;fill-opacity:1;fill-rule:nonzero;stroke:none"
       id="path110" /><path
       d="m 99.471,58.8646 c 0,3.067 -0.617,8.27 -1.643,10.779 -2.058,5.036 -6.909,7.334 -10.559,7.334 -3.649,0 -8.499,-2.296 -10.558,-7.329 -1.026,-2.51 -1.645,-7.715 -1.645,-10.784 z"
       style="fill:#ffffff;fill-opacity:1;fill-rule:nonzero;stroke:none"
       id="path114" /><path
       d="m 108.868,73.6328 c 0,-16.772 -13.596,-30.368 -30.368,-30.368 -16.772,0 -30.368,13.596 -30.368,30.368 0,16.772 13.596,30.368 30.368,30.368 16.772,0 30.368,-13.596 30.368,-30.368"
       style="fill:#1b75bc;fill-opacity:1;fill-rule:nonzero;stroke:none"
       id="path118" /><path
       d="m 81.9335,58.8646 c 0,3.067 -0.617,8.27 -1.643,10.779 -2.058,5.036 -6.909,7.334 -10.559,7.334 -3.649,0 -8.499,-2.296 -10.558,-7.329 -1.026,-2.51 -1.645,-7.715 -1.645,-10.784 z"
       style="fill:#ffffff;fill-opacity:1;fill-rule:nonzero;stroke:none"
       id="path122" /><path
       d="m 99.471,58.8646 c 0,3.067 -0.617,8.27 -1.643,10.779 -2.058,5.036 -6.909,7.334 -10.559,7.334 -3.649,0 -8.499,-2.296 -10.558,-7.329 -1.026,-2.51 -1.645,-7.715 -1.645,-10.784 z"
       style="fill:#ffffff;fill-opacity:1;fill-rule:nonzero;stroke:none"
       id="path126" /><path
       d="m 99.471,58.8646 c 0,3.067 -0.617,8.27 -1.643,10.779 -2.058,5.036 -6.909,7.334 -10.559,7.334 -3.649,0 -8.499,-2.296 -10.558,-7.329 -1.026,-2.51 -1.645,-7.715 -1.645,-10.784 z"
       style="fill:none;stroke:#1b75bc;stroke-width:3.45000005;stroke-linecap:butt;stroke-linejoin:miter;stroke-miterlimit:10;stroke-dasharray:none;stroke-opacity:1"
       id="path130" /><path
       d="m 99.471,58.8646 c 0,3.067 -0.617,8.27 -1.643,10.779 -2.058,5.036 -6.909,7.334 -10.559,7.334 -3.649,0 -8.499,-2.296 -10.558,-7.329 -1.026,-2.51 -1.645,-7.715 -1.645,-10.784 z"
       style="fill:#ffffff;fill-opacity:1;fill-rule:nonzero;stroke:none"
       id="path134" /><path
       d="m 95.2049,86.494 c 0,-4.383 -3.553,-7.936 -7.936,-7.936 -4.383,0 -7.936,3.553 -7.936,7.936 0,4.383 3.553,7.936 7.936,7.936 4.383,0 7.936,-3.553 7.936,-7.936"
       style="fill:#ffffff;fill-opacity:1;fill-rule:nonzero;stroke:none"
       id="path138" /><path
       d="m 77.6674,86.494 c 0,-4.383 -3.553,-7.936 -7.936,-7.936 -4.383,0 -7.936,3.553 -7.936,7.936 0,4.383 3.553,7.936 7.936,7.936 4.383,0 7.936,-3.553 7.936,-7.936"
       style="fill:#ffffff;fill-opacity:1;fill-rule:nonzero;stroke:none"
       id="path142" /><path
       id="path144"
       style="fill:#f15a29;fill-opacity:1;fill-rule:nonzero;stroke:none"
       d="m 275.02,51.688 h 40.975 V 31.591 H 275.02 Z" /><path
       id="path146"
       style="fill:#ffffff;fill-opacity:1;fill-rule:nonzero;stroke:none"
       d="M 316.494,52.187 H 274.519 V 31.091 h 41.975 z m -1,-20.096 h -39.975 v 19.096 h 39.975 z" /><path
       d="m 276.0503,31.5908 9.291,6.796 10.165,7.481 10.122,-7.48 9.331,-6.797 z"
       style="fill:#f15a29;fill-opacity:1;fill-rule:nonzero;stroke:none"
       id="path150" /><path
       d="m 295.5068,46.4891 -10.461,-7.699 -10.526,-7.699 h 41.974 l -10.569,7.699 z m -10e-4,-1.243 9.83,-7.264 8.087,-5.891 h -35.842 l 8.058,5.894 z"
       style="fill:#ffffff;fill-opacity:1;fill-rule:nonzero;stroke:none"
       id="path154" /><path
       d="m 285.3223,45.4521 -9.177,6.235 h 38.718 l -9.219,-6.238 -10.138,-6.756 z"
       style="fill:#f15a29;fill-opacity:1;fill-rule:nonzero;stroke:none"
       id="path158" /><path
       d="m 316.4943,52.1873 h -41.975 l 10.527,-7.152 10.461,-6.943 10.417,6.943 z m -3.262,-1 -7.862,-5.32 -9.865,-6.574 -9.897,6.569 -7.838,5.325 z"
       style="fill:#ffffff;fill-opacity:1;fill-rule:nonzero;stroke:none"
       id="path162" /><path
       d="m 569.0387,72.9208 c 0,-16.772 -13.596,-30.368 -30.368,-30.368 -16.772,0 -30.368,13.596 -30.368,30.368 0,16.772 13.596,30.368 30.368,30.368 16.772,0 30.368,-13.596 30.368,-30.368"
       style="fill:#0d003d;fill-opacity:1;fill-rule:nonzero;stroke:none"
       id="path166" /><path
       d="m 553.6207,53.3054 c 0,-1.366 -1.118,-2.484 -2.484,-2.484 h -24.932 c -1.366,0 -2.484,1.118 -2.484,2.484 v 38.732 c 0,1.366 1.118,2.484 2.484,2.484 h 24.932 c 1.366,0 2.484,-1.118 2.484,-2.484 z"
       style="fill:#f1f1f2;fill-opacity:1;fill-rule:nonzero;stroke:none"
       id="path170" /><path
       d="m 551.3782,58.8829 c 0,-1.366 -1.118,-2.484 -2.484,-2.484 h -20.447 c -1.366,0 -2.484,1.118 -2.484,2.484 v 30.017 c 0,1.366 1.118,2.484 2.484,2.484 h 20.447 c 1.366,0 2.484,-1.118 2.484,-2.484 z"
       style="fill:#0d003d;fill-opacity:1;fill-rule:nonzero;stroke:none"
       id="path174" /><path
       d="m 540.5395,53.6485 c 0,-1.032 -0.837,-1.869 -1.869,-1.869 -1.032,0 -1.868,0.837 -1.868,1.869 0,1.032 0.836,1.869 1.868,1.869 1.032,0 1.869,-0.837 1.869,-1.869"
       style="fill:#bcbec0;fill-opacity:1;fill-rule:nonzero;stroke:none"
       id="path178" /><path
       d="m 542.2166,92.8922 c 0,-0.264 -0.373,-0.479 -0.828,-0.479 h -5.436 c -0.455,0 -0.828,0.215 -0.828,0.479 0,0.264 0.373,0.479 0.828,0.479 h 5.436 c 0.455,0 0.828,-0.215 0.828,-0.479"
       style="fill:#bcbec0;fill-opacity:1;fill-rule:nonzero;stroke:none"
       id="path182" /><path
       d="m 525.5077,392.632 c 0,-8.289 -6.719,-15.008 -15.008,-15.008 -8.288,0 -15.007,6.719 -15.007,15.008 0,8.289 6.719,15.008 15.007,15.008 8.289,0 15.008,-6.719 15.008,-15.008"
       style="fill:#662c91;fill-opacity:1;fill-rule:nonzero;stroke:none"
       id="path186" /><path
       d="m 520.4051,392.632 c 0,-5.47 -4.435,-9.905 -9.905,-9.905 -5.471,0 -9.905,4.435 -9.905,9.905 0,5.47 4.434,9.905 9.905,9.905 5.47,0 9.905,-4.435 9.905,-9.905"
       style="fill:#662c91;fill-opacity:1;fill-rule:nonzero;stroke:none"
       id="path190" /><path
       d="m 520.4051,392.632 c 0,-5.47 -4.435,-9.905 -9.905,-9.905 -5.471,0 -9.905,4.435 -9.905,9.905 0,5.47 4.434,9.905 9.905,9.905 5.47,0 9.905,-4.435 9.905,-9.905 z"
       style="fill:none;stroke:#ffffff;stroke-width:1.16100001;stroke-linecap:butt;stroke-linejoin:miter;stroke-miterlimit:10;stroke-dasharray:none;stroke-opacity:1"
       id="path194" /><path
       d="m 583.9887,240.1484 c 0,-16.772 -13.596,-30.368 -30.368,-30.368 -16.772,0 -30.368,13.596 -30.368,30.368 0,16.772 13.596,30.368 30.368,30.368 16.772,0 30.368,-13.596 30.368,-30.368"
       style="fill:#bf1e2d;fill-opacity:1;fill-rule:nonzero;stroke:none"
       id="path198" /><path
       d="m 530.6207,241.8917 c 0,-3.372 2.61,-6.428 6.842,-8.656 1.115,-0.587 -2.627,-5.728 -1.305,-6.191 0.686,-0.24 6.366,4.149 7.1,3.946 3.345,-0.924 7.165,-1.448 11.222,-1.448 13.177,0 23.859,5.529 23.859,12.349 0,6.82 -10.682,12.349 -23.859,12.349 -13.177,0 -23.859,-5.529 -23.859,-12.349"
       style="fill:#ffffff;fill-opacity:1;fill-rule:nonzero;stroke:none"
       id="path202" /><path
       d="m 541.5049,242.2222 c 0,-1.459 -1.183,-2.643 -2.642,-2.643 -1.46,0 -2.643,1.184 -2.643,2.643 0,1.459 1.183,2.643 2.643,2.643 1.459,0 2.642,-1.184 2.642,-2.643"
       style="fill:#bf1e2d;fill-opacity:1;fill-rule:nonzero;stroke:none"
       id="path206" /><path
       d="m 548.92,242.2222 c 0,-1.459 -1.183,-2.643 -2.643,-2.643 -1.459,0 -2.642,1.184 -2.642,2.643 0,1.459 1.183,2.643 2.642,2.643 1.46,0 2.643,-1.184 2.643,-2.643"
       style="fill:#bf1e2d;fill-opacity:1;fill-rule:nonzero;stroke:none"
       id="path210" /><path
       d="m 556.3351,242.2222 c 0,-1.459 -1.183,-2.643 -2.643,-2.643 -1.459,0 -2.642,1.184 -2.642,2.643 0,1.459 1.183,2.643 2.642,2.643 1.46,0 2.643,-1.184 2.643,-2.643"
       style="fill:#bf1e2d;fill-opacity:1;fill-rule:nonzero;stroke:none"
       id="path214" /><path
       d="m 563.7502,242.2222 c 0,-1.459 -1.183,-2.643 -2.643,-2.643 -1.459,0 -2.642,1.184 -2.642,2.643 0,1.459 1.183,2.643 2.642,2.643 1.46,0 2.643,-1.184 2.643,-2.643"
       style="fill:#bf1e2d;fill-opacity:1;fill-rule:nonzero;stroke:none"
       id="path218" /><path
       d="m 571.1653,242.2222 c 0,-1.459 -1.183,-2.643 -2.643,-2.643 -1.459,0 -2.642,1.184 -2.642,2.643 0,1.459 1.183,2.643 2.642,2.643 1.46,0 2.643,-1.184 2.643,-2.643"
       style="fill:#bf1e2d;fill-opacity:1;fill-rule:nonzero;stroke:none"
       id="path222" /></g></svg>