<?xml version="1.0" encoding="utf-8"?>
<!-- Generator: Adobe Illustrator 16.0.0, SVG Export Plug-In . SVG Version: 6.00 Build 0)  -->
<!DOCTYPE svg PUBLIC "-//W3C//DTD SVG 1.0//EN" "http://www.w3.org/TR/2001/REC-SVG-20010904/DTD/svg10.dtd">
<svg version="1.0" id="Layer_1" xmlns="http://www.w3.org/2000/svg" xmlns:xlink="http://www.w3.org/1999/xlink" x="0px" y="0px"
	 width="32px" height="32px" viewBox="0 0 32 32" enable-background="new 0 0 32 32" xml:space="preserve">
<g>
	<polygon fill="#434854" points="26,23.001 6,23.001 6,8.001 16,1.001 26,8.001 	"/>
	<path fill="#EDD87E" d="M21,21.001v-5H11v5c-4.971,0-11,3.029-11,8c0,1.657,1.343,3,3,3h26c1.657,0,3-1.343,3-3
		C32,24.03,25.971,21.001,21,21.001z"/>
	<path fill="#EDD87E" d="M20,1.001h-8c-2.209,0-4,1.791-4,4v5c0,5.522,3.582,10,8,10s8-4.478,8-10v-5
		C24,2.792,22.209,1.001,20,1.001z"/>
	<path opacity="0.1" d="M21,19.142V17.8c-1.37,1.375-3.106,2.201-5,2.201s-3.63-0.826-5-2.201v1.342c1.432,1.173,3.15,1.859,5,1.859
		S19.568,20.314,21,19.142z"/>
	<g>
		<path fill="#EAEAEA" d="M22.998,21.158L23,21.156l-2-2.155l-3,4v9h11c1.657,0,3-1.343,3-3C32,24.684,27.451,21.834,22.998,21.158z
			"/>
		<path fill="#EAEAEA" d="M9,21.156l0.002,0.002C4.549,21.834,0,24.684,0,29.001c0,1.657,1.343,3,3,3h11v-9l-3-4L9,21.156z"/>
	</g>
	<g opacity="0.1">
		<polygon points="9,21.156 14,27.001 14,23.001 11,19.001 		"/>
		<polygon points="21,19.001 18,23.001 18,27.001 23,21.156 		"/>
	</g>
	<path fill="#434854" d="M16,0.001c-9,0-10,4.042-10,8c0,0.349,0,2.683,0,3c0.647,0.119,1.318,0,2,0c3.514,0,13.194-5.03,14-7
		c2,1,2,6,4,6c0-0.411,0-1,0-2C26,3.78,24,0.001,16,0.001z"/>
	<path fill="#434854" d="M21,9.001h-3c-0.553,0-1,0.447-1,1v0.184c-0.314-0.111-0.647-0.184-1-0.184s-0.686,0.072-1,0.184v-0.184
		c0-0.553-0.447-1-1-1h-3c-0.553,0-1,0.447-1,1v2c0,0.553,0.447,1,1,1h3c0.553,0,1-0.447,1-1v-0.723
		c0.295-0.172,0.634-0.277,1-0.277s0.705,0.105,1,0.277v0.723c0,0.553,0.447,1,1,1h3c0.553,0,1-0.447,1-1v-2
		C22,9.448,21.553,9.001,21,9.001z M14,12.001h-3v-2h3V12.001z M21,12.001h-3v-2h3V12.001z"/>
	<g>
		<path fill="#EF4D4D" d="M23.093,21.176c-0.033-0.006-0.067-0.014-0.101-0.019l0,0C23.025,21.162,23.059,21.17,23.093,21.176z"/>
		<path fill="#EF4D4D" d="M16,28.001c-0.695,0-1.366-0.104-2-0.293v4.293h4v-4.293C17.366,27.897,16.695,28.001,16,28.001z"/>
	</g>
</g>
</svg>
