<?xml version="1.0" encoding="UTF-8" standalone="no"?>
<!-- Generator: Gravit.io -->

<svg
   xmlns:dc="http://purl.org/dc/elements/1.1/"
   xmlns:cc="http://creativecommons.org/ns#"
   xmlns:rdf="http://www.w3.org/1999/02/22-rdf-syntax-ns#"
   xmlns:svg="http://www.w3.org/2000/svg"
   xmlns="http://www.w3.org/2000/svg"
   xmlns:sodipodi="http://sodipodi.sourceforge.net/DTD/sodipodi-0.dtd"
   xmlns:inkscape="http://www.inkscape.org/namespaces/inkscape"
   style="isolation:isolate"
   viewBox="-1.5 -1.5 415 292"
   width="415"
   height="292"
   version="1.1"
   id="svg12"
   sodipodi:docname="terminal.svg"
   inkscape:version="0.92.1 unknown">
  <metadata
     id="metadata18">
    <rdf:RDF>
      <cc:Work
         rdf:about="">
        <dc:format>image/svg+xml</dc:format>
        <dc:type
           rdf:resource="http://purl.org/dc/dcmitype/StillImage" />
        <dc:title></dc:title>
      </cc:Work>
    </rdf:RDF>
  </metadata>
  <defs
     id="defs16" />
  <sodipodi:namedview
     pagecolor="#ffffff"
     bordercolor="#666666"
     borderopacity="1"
     objecttolerance="10"
     gridtolerance="10"
     guidetolerance="10"
     inkscape:pageopacity="0"
     inkscape:pageshadow="2"
     inkscape:window-width="1600"
     inkscape:window-height="821"
     id="namedview14"
     showgrid="false"
     fit-margin-top="0"
     fit-margin-left="0"
     fit-margin-right="0"
     fit-margin-bottom="0"
     inkscape:zoom="1.8101934"
     inkscape:cx="215.63449"
     inkscape:cy="167.31796"
     inkscape:window-x="0"
     inkscape:window-y="24"
     inkscape:window-maximized="1"
     inkscape:current-layer="svg12" />
  <rect
     x="-1"
     y="-1"
     width="414"
     height="291"
     stroke-miterlimit="3"
     id="rect2"
     style="vector-effect:non-scaling-stroke;fill:none;stroke:#a2a2a2;stroke-width:1;stroke-linecap:square;stroke-linejoin:miter;stroke-miterlimit:3" />
  <path
     d="m -0.1,-1 h 412.2 c 0.497,0 0.9,0.403 0.9,0.9 v 34.2 c 0,0.497 -0.403,0.9 -0.9,0.9 H -0.1 C -0.597,35 -1,34.597 -1,34.1 V -0.1 C -1,-0.597 -0.597,-1 -0.1,-1 Z"
     style="fill:#475375;stroke:none;stroke-miterlimit:10"
     id="path4"
     inkscape:connector-curvature="0" />
  <path
     d="m 384,17 c 0,-3.863 3.137,-7 7,-7 3.863,0 7,3.137 7,7 0,3.863 -3.137,7 -7,7 -3.863,0 -7,-3.137 -7,-7 z"
     id="path6"
     inkscape:connector-curvature="0"
     style="fill:#a2a2a2" />
  <path
     d="m 359.5,17 c 0,-3.863 3.137,-7 7,-7 3.863,0 7,3.137 7,7 0,3.863 -3.137,7 -7,7 -3.863,0 -7,-3.137 -7,-7 z"
     id="path8"
     inkscape:connector-curvature="0"
     style="fill:#a2a2a2" />
  <path
     d="m 335,17 c 0,-3.863 3.137,-7 7,-7 3.863,0 7,3.137 7,7 0,3.863 -3.137,7 -7,7 -3.863,0 -7,-3.137 -7,-7 z"
     id="path10"
     inkscape:connector-curvature="0"
     style="fill:#a2a2a2" />
</svg>
